  0
SECTION
  2
HEADER
  9
$ACADVER
  1
AC1009
  9
$INSBASE
 10
0.0
 20
0.0
 30
0.0
  9
$EXTMIN
 10
1888.2544302361950486
 20
-73.3763268976390606
 30
0.0
  9
$EXTMAX
 10
2263.5581591134218797
 20
219.3227293384929055
 30
0.0
  9
$LIMMIN
 10
0.0
 20
0.0
  9
$LIMMAX
 10
377.0
 20
225.0
  9
$ORTHOMODE
 70
     0
  9
$REGENMODE
 70
     1
  9
$FILLMODE
 70
     1
  9
$QTEXTMODE
 70
     0
  9
$MIRRTEXT
 70
     0
  9
$DRAGMODE
 70
     2
  9
$LTSCALE
 40
7.799999999999998
  9
$OSMODE
 70
    37
  9
$ATTMODE
 70
     1
  9
$TEXTSIZE
 40
2.5
  9
$TRACEWID
 40
1.0
  9
$TEXTSTYLE
  7
STANDARD
  9
$CLAYER
  8
TRAIT_FORT
  9
$CELTYPE
  6
BYLAYER
  9
$CECOLOR
 62
   256
  9
$DIMSCALE
 40
20.0
  9
$DIMASZ
 40
2.5
  9
$DIMEXO
 40
0.0
  9
$DIMDLI
 40
7.0
  9
$DIMRND
 40
1.0
  9
$DIMDLE
 40
0.0
  9
$DIMEXE
 40
1.5
  9
$DIMTP
 40
0.0
  9
$DIMTM
 40
0.0
  9
$DIMTXT
 40
2.5
  9
$DIMCEN
 40
25.0
  9
$DIMTSZ
 40
0.0
  9
$DIMTOL
 70
     0
  9
$DIMLIM
 70
     0
  9
$DIMTIH
 70
     0
  9
$DIMTOH
 70
     0
  9
$DIMSE1
 70
     0
  9
$DIMSE2
 70
     0
  9
$DIMTAD
 70
     1
  9
$DIMZIN
 70
     8
  9
$DIMBLK
  1

  9
$DIMASO
 70
     1
  9
$DIMSHO
 70
     1
  9
$DIMPOST
  1

  9
$DIMAPOST
  1

  9
$DIMALT
 70
     0
  9
$DIMALTD
 70
     2
  9
$DIMALTF
 40
0.0394
  9
$DIMLFAC
 40
1.0
  9
$DIMTOFL
 70
     1
  9
$DIMTVP
 40
1.0
  9
$DIMTIX
 70
     0
  9
$DIMSOXD
 70
     0
  9
$DIMSAH
 70
     0
  9
$DIMBLK1
  1

  9
$DIMBLK2
  1

  9
$DIMSTYLE
  2
ECH_1_20
  9
$DIMCLRD
 70
   256
  9
$DIMCLRE
 70
   256
  9
$DIMCLRT
 70
     2
  9
$DIMTFAC
 40
1.0
  9
$DIMGAP
 40
1.0
  9
$LUNITS
 70
     2
  9
$LUPREC
 70
     1
  9
$SKETCHINC
 40
1.0
  9
$FILLETRAD
 40
0.0
  9
$AUNITS
 70
     0
  9
$AUPREC
 70
     3
  9
$MENU
  1
.
  9
$ELEVATION
 40
0.0
  9
$PELEVATION
 40
0.0
  9
$THICKNESS
 40
0.0
  9
$LIMCHECK
 70
     0
  9
$BLIPMODE
 70
     0
  9
$CHAMFERA
 40
10.0
  9
$CHAMFERB
 40
10.0
  9
$SKPOLY
 70
     0
  9
$TDCREATE
 40
2459562.3645601850003004
  9
$TDUPDATE
 40
2459570.6360995369032025
  9
$TDINDWG
 40
0.0059027778
  9
$TDUSRTIMER
 40
0.0059027778
  9
$USRTIMER
 70
     1
  9
$ANGBASE
 50
0.0
  9
$ANGDIR
 70
     0
  9
$PDMODE
 70
     3
  9
$PDSIZE
 40
-3.0
  9
$PLINEWID
 40
0.0
  9
$COORDS
 70
     1
  9
$SPLFRAME
 70
     0
  9
$SPLINETYPE
 70
     6
  9
$SPLINESEGS
 70
     8
  9
$ATTDIA
 70
     1
  9
$ATTREQ
 70
     1
  9
$HANDLING
 70
     1
  9
$HANDSEED
  5
C38A
  9
$SURFTAB1
 70
     6
  9
$SURFTAB2
 70
     6
  9
$SURFTYPE
 70
     6
  9
$SURFU
 70
     6
  9
$SURFV
 70
     6
  9
$UCSNAME
  2

  9
$UCSORG
 10
0.0
 20
0.0
 30
0.0
  9
$UCSXDIR
 10
1.0
 20
0.0
 30
0.0
  9
$UCSYDIR
 10
0.0
 20
1.0
 30
0.0
  9
$PUCSNAME
  2

  9
$PUCSORG
 10
0.0
 20
0.0
 30
0.0
  9
$PUCSXDIR
 10
1.0
 20
0.0
 30
0.0
  9
$PUCSYDIR
 10
0.0
 20
1.0
 30
0.0
  9
$USERI1
 70
     0
  9
$USERI2
 70
     0
  9
$USERI3
 70
     0
  9
$USERI4
 70
     0
  9
$USERI5
 70
     0
  9
$USERR1
 40
0.0
  9
$USERR2
 40
0.0
  9
$USERR3
 40
0.0
  9
$USERR4
 40
0.0
  9
$USERR5
 40
0.0
  9
$WORLDVIEW
 70
     1
  9
$SHADEDGE
 70
     3
  9
$SHADEDIF
 70
    70
  9
$TILEMODE
 70
     1
  9
$MAXACTVP
 70
    48
  9
$PLIMCHECK
 70
     0
  9
$PEXTMIN
 10
0.0
 20
0.0
 30
0.0
  9
$PEXTMAX
 10
0.0
 20
0.0
 30
0.0
  9
$PLIMMIN
 10
0.0
 20
0.0
  9
$PLIMMAX
 10
12.0
 20
9.0
  9
$UNITMODE
 70
     0
  9
$VISRETAIN
 70
     1
  9
$PLINEGEN
 70
     0
  9
$PSLTSCALE
 70
     1
  0
ENDSEC
  0
SECTION
  2
TABLES
  0
TABLE
  2
VPORT
 70
     1
  0
VPORT
  2
*ACTIVE
 70
     0
 10
0.0
 20
0.0
 11
1.0
 21
1.0
 12
2042.6479784191410545
 22
96.471814816168262
 13
0.0
 23
0.0
 14
10.0
 24
10.0
 15
10.0
 25
10.0
 16
0.0
 26
0.0
 36
1.0
 17
0.0
 27
0.0
 37
0.0
 40
764.9122235943668784
 41
1.562724014336917
 42
50.0
 43
0.0
 44
0.0
 50
0.0
 51
0.0
 71
     0
 72
   100
 73
     1
 74
     3
 75
     0
 76
     0
 77
     0
 78
     0
  0
ENDTAB
  0
TABLE
  2
LTYPE
 70
     4
  0
LTYPE
  2
CONTINUOUS
 70
     0
  3
Solid line
 72
    65
 73
     0
 40
0.0
  0
LTYPE
  2
AXES
 70
     0
  3
____ _ ____ _ ____ _ ____ _ ____ _ ____ _ ____ 
 72
    65
 73
     4
 40
2.0
 49
1.25
 49
-0.25
 49
0.25
 49
-0.25
  0
LTYPE
  2
CACHE
 70
     0
  3
__ __ __ __ __ __ __ __ __ __ __ __ __ __ __ __
 72
    65
 73
     2
 40
0.375
 49
0.25
 49
-0.125
  0
LTYPE
  2
PHANTOM2
 70
     0
  3
___ _ _ ___ _ _ ___ _ _ ___ _ _
 72
    65
 73
     6
 40
1.25
 49
0.625
 49
-0.125
 49
0.125
 49
-0.125
 49
0.125
 49
-0.125
  0
ENDTAB
  0
TABLE
  2
LAYER
 70
    29
  0
LAYER
  2
0
 70
     0
 62
    31
  6
CONTINUOUS
  0
LAYER
  2
TRAIT_FORT
 70
     0
 62
     7
  6
CONTINUOUS
  0
LAYER
  2
TRAIT_AXE
 70
     0
 62
     1
  6
AXES
  0
LAYER
  2
HACHURES
 70
     0
 62
     4
  6
CONTINUOUS
  0
LAYER
  2
TEXTE_GROS
 70
     0
 62
     3
  6
CONTINUOUS
  0
LAYER
  2
TRAIT_TIRETE
 70
     0
 62
     1
  6
CACHE
  0
LAYER
  2
COTES
 70
     0
 62
    10
  6
CONTINUOUS
  0
LAYER
  2
ESQUISSE
 70
     0
 62
     9
  6
CONTINUOUS
  0
LAYER
  2
TEXTE_MOYEN
 70
     0
 62
   210
  6
CONTINUOUS
  0
LAYER
  2
TEXTE_FIN
 70
     0
 62
   170
  6
CONTINUOUS
  0
LAYER
  2
DEFPOINTS
 70
     0
 62
     7
  6
CONTINUOUS
  0
LAYER
  2
TRAIT_FIN
 70
     0
 62
     1
  6
CONTINUOUS
  0
LAYER
  2
TRAIT_MOYEN
 70
     0
 62
     6
  6
CONTINUOUS
  0
LAYER
  2
VUES
 70
     0
 62
   120
  6
CONTINUOUS
  0
LAYER
  2
COTES_1-10
 70
     0
 62
    10
  6
CONTINUOUS
  0
LAYER
  2
COTES_1-20
 70
     0
 62
    10
  6
CONTINUOUS
  0
LAYER
  2
COTES_1-5
 70
     0
 62
    10
  6
CONTINUOUS
  0
LAYER
  2
COTES_1-25
 70
     0
 62
    10
  6
CONTINUOUS
  0
LAYER
  2
COTES_1-50
 70
     0
 62
    10
  6
CONTINUOUS
  0
LAYER
  2
COTES_1-100
 70
     0
 62
    10
  6
CONTINUOUS
  0
LAYER
  2
COTES_1-2
 70
     0
 62
    10
  6
CONTINUOUS
  0
LAYER
  2
TRAIT_MOYEN_TIRETE
 70
     0
 62
     6
  6
CACHE
  0
LAYER
  2
CW
 70
     0
 62
     5
  6
CONTINUOUS
  0
LAYER
  2
FORT
 70
     0
 62
     7
  6
CONTINUOUS
  0
LAYER
  2
TITRE__ISO_
 70
     0
 62
     7
  6
CONTINUOUS
  0
LAYER
  2
MARQ
 70
     0
 62
     3
  6
CONTINUOUS
  0
LAYER
  2
PULSE
 70
     0
 62
     2
  6
CONTINUOUS
  0
LAYER
  2
DÉCOR
 70
     0
 62
     4
  6
CONTINUOUS
  0
LAYER
  2
01_HERBES_C
 70
     0
 62
    92
  6
CONTINUOUS
  0
ENDTAB
  0
TABLE
  2
STYLE
 70
     6
  0
STYLE
  2
STANDARD
 70
     0
 40
0.0
 41
1.0
 50
0.0
 71
     0
 42
2.5
  3
ISOCP
  4

  0
STYLE
  2
NRG
 70
     0
 40
0.0
 41
1.0
 50
0.0
 71
     0
 42
1.5
  3
txt
  4

  0
STYLE
  2
NR
 70
     0
 40
0.0
 41
1.0
 50
0.0
 71
     0
 42
4.9390000000000001
  3
txt
  4

  0
STYLE
  2
ANNOTATIVE
 70
     0
 40
0.0
 41
1.0
 50
0.0
 71
     0
 42
0.2
  3
txt
  4

  0
STYLE
  2
TEXTE_DE_NOTE__ISO_
 70
     0
 40
0.0
 41
1.0
 50
0.0
 71
     0
 42
0.2
  3
txt
  4

  0
STYLE
  2
TEXTE_OK
 70
     0
 40
15.0
 41
1.0
 50
0.0
 71
     0
 42
15.0
  3
txt
  4

  0
ENDTAB
  0
TABLE
  2
VIEW
 70
     4
  0
ENDTAB
  0
TABLE
  2
UCS
 70
     0
  0
ENDTAB
  0
TABLE
  2
APPID
 70
    52
  0
APPID
  2
ACAD
 70
     0
  0
APPID
  2
CONTENTTABDATA
 70
     0
  0
APPID
  2
CONTENTCURRENTTAB
 70
     0
  0
APPID
  2
ACADIGES
 70
     0
  0
APPID
  2
TRMECA_CONFIG
 70
     0
  0
APPID
  2
TM_FASTENER
 70
     0
  0
APPID
  2
DIMBASE
 70
     0
  0
APPID
  2
DIMBASE1
 70
     0
  0
APPID
  2
DIMBASE2
 70
     0
  0
APPID
  2
DIMBASE3
 70
     0
  0
APPID
  2
DIMBASE4
 70
     0
  0
APPID
  2
TMCFG_PLANS
 70
     0
  0
APPID
  2
CB_CONFIG
 70
     0
  0
APPID
  2
TRMECA_TRACE_LILLE
 70
     0
  0
APPID
  2
DBFLAGS
 70
     0
  0
APPID
  2
DBPROPERTIES
 70
     0
  0
APPID
  2
DBREFERENCES
 70
     0
  0
APPID
  2
DBCONSTRAINTS
 70
     0
  0
APPID
  2
DBGROUP
 70
     0
  0
APPID
  2
DBSCRIPT
 70
     0
  0
APPID
  2
DBGENERALFEATURES
 70
     0
  0
APPID
  2
DB_HANDLE_ENTITY
 70
     0
  0
APPID
  2
PBCONTEXT
 70
     0
  0
APPID
  2
INFOPOINTS
 70
     0
  0
APPID
  2
BALLOONS
 70
     0
  0
APPID
  2
CONTENTBLOCKICON
 70
     0
  0
APPID
  2
ACAD_PSEXT
 70
     0
  0
APPID
  2
ACAD_DSTYLE_DIMTEXT_FILL
 70
     0
  0
APPID
  2
ACAECLAYERSTANDARD
 70
     0
  0
APPID
  2
PE_URL
 70
     0
  0
APPID
  2
ACAD_MLEADERVER
 70
     0
  0
APPID
  2
ACADANNOAV
 70
     0
  0
APPID
  2
ACAUTHENVIRON
 70
     0
  0
APPID
  2
ACDBDYNAMICBLOCKTRUENAME
 70
     0
  0
APPID
  2
ACDBDYNAMICBLOCKGUID
 70
     0
  0
APPID
  2
ACAD_EXEMPT_FROM_CAD_STANDARDS
 70
     0
  0
APPID
  2
ACAD_DSTYLE_DIMJAG
 70
     0
  0
APPID
  2
ACAD_DSTYLE_DIMTALN
 70
     0
  0
APPID
  2
ACAD_DSTYLE_DIMBREAK
 70
     0
  0
APPID
  2
ACADANNOTATIVE
 70
     0
  0
APPID
  2
DCO15
 70
     0
  0
APPID
  2
ACDBBLOCKREPETAG
 70
     0
  0
APPID
  2
ACDBBLOCKREPBTAG
 70
     0
  0
APPID
  2
ACAD_BCONSTRUCTION
 70
     0
  0
APPID
  2
ACDBDYNAMICBLOCKTRUENAME2
 70
     0
  0
APPID
  2
ACADBPTGRAPHNODEID
 70
     0
  0
APPID
  2
ACCMTRANSPARENCY
 70
     0
  0
APPID
  2
ACAD_NAV_VCDISPLAY
 70
     0
  0
APPID
  2
GRADIENTCOLOR1ACI
 70
     0
  0
APPID
  2
GRADIENTCOLOR2ACI
 70
     0
  0
APPID
  2
ACADANNOPO
 70
     0
  0
APPID
  2
AcDbAttr
 70
     0
  0
ENDTAB
  0
TABLE
  2
DIMSTYLE
 70
    13
  0
DIMSTYLE
  2
ECH_1
 70
     0
  3

  4

  5

  6

  7

 40
1.0
 41
2.5
 42
0.0
 43
7.0
 44
1.5
 45
1.0
 46
0.0
 47
0.0
 48
0.0
140
2.5
141
25.0
142
0.0
143
0.0394
144
1.0
145
1.0
146
1.0
147
1.0
 71
     0
 72
     0
 73
     0
 74
     0
 75
     0
 76
     0
 77
     1
 78
     8
170
     0
171
     2
172
     1
173
     0
174
     0
175
     0
176
   256
177
   256
178
     2
  0
DIMSTYLE
  2
ECH_1_10
 70
     0
  3

  4

  5

  6

  7

 40
10.0
 41
2.5
 42
0.0
 43
7.0
 44
1.5
 45
1.0
 46
0.0
 47
0.0
 48
0.0
140
2.5
141
25.0
142
0.0
143
0.0394
144
1.0
145
1.0
146
1.0
147
1.0
 71
     0
 72
     0
 73
     0
 74
     0
 75
     0
 76
     0
 77
     1
 78
     8
170
     0
171
     2
172
     1
173
     0
174
     0
175
     0
176
   256
177
   256
178
     2
  0
DIMSTYLE
  2
ECH_1_100
 70
     0
  3

  4

  5

  6

  7

 40
100.0
 41
2.5
 42
0.0
 43
7.0
 44
1.5
 45
1.0
 46
0.0
 47
0.0
 48
0.0
140
2.5
141
25.0
142
0.0
143
0.0394
144
1.0
145
1.0
146
1.0
147
1.0
 71
     0
 72
     0
 73
     0
 74
     0
 75
     0
 76
     0
 77
     1
 78
     8
170
     0
171
     2
172
     1
173
     0
174
     0
175
     0
176
   256
177
   256
178
     2
  0
DIMSTYLE
  2
ECH_1_20
 70
     0
  3

  4

  5

  6

  7

 40
20.0
 41
2.5
 42
0.0
 43
7.0
 44
1.5
 45
1.0
 46
0.0
 47
0.0
 48
0.0
140
2.5
141
25.0
142
0.0
143
0.0394
144
1.0
145
1.0
146
1.0
147
1.0
 71
     0
 72
     0
 73
     0
 74
     0
 75
     0
 76
     0
 77
     1
 78
     8
170
     0
171
     2
172
     1
173
     0
174
     0
175
     0
176
   256
177
   256
178
     2
  0
DIMSTYLE
  2
ECH_1_25
 70
     0
  3

  4

  5

  6

  7

 40
25.0
 41
2.5
 42
0.0
 43
7.0
 44
1.5
 45
1.0
 46
0.0
 47
0.0
 48
0.0
140
2.5
141
25.0
142
0.0
143
0.0394
144
1.0
145
1.0
146
1.0
147
1.0
 71
     0
 72
     0
 73
     0
 74
     0
 75
     0
 76
     0
 77
     1
 78
     8
170
     0
171
     2
172
     1
173
     0
174
     0
175
     0
176
   256
177
   256
178
     2
  0
DIMSTYLE
  2
ECH_1_50
 70
     0
  3

  4

  5

  6

  7

 40
50.0
 41
2.5
 42
0.0
 43
7.0
 44
1.5
 45
1.0
 46
0.0
 47
0.0
 48
0.0
140
2.5
141
25.0
142
0.0
143
0.0394
144
1.0
145
1.0
146
1.0
147
1.0
 71
     0
 72
     0
 73
     0
 74
     0
 75
     0
 76
     0
 77
     1
 78
     8
170
     0
171
     2
172
     1
173
     0
174
     0
175
     0
176
   256
177
   256
178
     2
  0
DIMSTYLE
  2
ECH_1_2
 70
     0
  3

  4

  5

  6

  7

 40
2.0
 41
2.5
 42
0.0
 43
7.0
 44
1.5
 45
1.0
 46
0.0
 47
0.0
 48
0.0
140
2.5
141
25.0
142
0.0
143
0.0394
144
1.0
145
1.0
146
1.0
147
1.0
 71
     0
 72
     0
 73
     0
 74
     0
 75
     0
 76
     0
 77
     1
 78
     8
170
     0
171
     2
172
     1
173
     0
174
     0
175
     0
176
   256
177
   256
178
     2
  0
DIMSTYLE
  2
ECH_1_5
 70
     0
  3

  4

  5

  6

  7

 40
5.0
 41
2.5
 42
0.0
 43
7.0
 44
1.5
 45
1.0
 46
0.0
 47
0.0
 48
0.0
140
2.5
141
25.0
142
0.0
143
0.0394
144
1.0
145
1.0
146
1.0
147
1.0
 71
     0
 72
     0
 73
     0
 74
     0
 75
     0
 76
     0
 77
     1
 78
     8
170
     0
171
     2
172
     1
173
     0
174
     0
175
     0
176
   256
177
   256
178
     2
  0
DIMSTYLE
  2
STANDARD
 70
     0
  3

  4

  5

  6

  7

 40
1.0
 41
0.18
 42
0.0625
 43
0.38
 44
0.18
 45
0.0
 46
0.0
 47
0.0
 48
0.0
140
0.18
141
0.09
142
0.0
143
25.3999999999999986
144
1.0
145
0.0
146
1.0
147
0.09
 71
     0
 72
     0
 73
     1
 74
     1
 75
     0
 76
     0
 77
     0
 78
     0
170
     0
171
     2
172
     0
173
     0
174
     0
175
     0
176
     0
177
     0
178
   256
  0
DIMSTYLE
  2
ANNOTATIVE
 70
     0
  3

  4

  5

  6

  7

 40
1.0
 41
0.18
 42
0.0625
 43
0.38
 44
0.18
 45
0.0
 46
0.0
 47
0.0
 48
0.0
140
0.18
141
0.09
142
0.0
143
25.3999999999999986
144
1.0
145
0.0
146
1.0
147
0.09
 71
     0
 72
     0
 73
     1
 74
     1
 75
     0
 76
     0
 77
     0
 78
     0
170
     0
171
     2
172
     0
173
     0
174
     0
175
     0
176
     0
177
     0
178
     0
  0
DIMSTYLE
  2
ANNOTATIF
 70
     0
  3

  4

  5

  6

  7

 40
0.0
 41
0.18
 42
0.0625
 43
0.38
 44
0.18
 45
0.0
 46
0.0
 47
0.0
 48
0.0
140
0.18
141
0.09
142
0.0
143
25.3999999999999986
144
1.0
145
0.0
146
1.0
147
0.09
 71
     0
 72
     0
 73
     1
 74
     1
 75
     0
 76
     0
 77
     0
 78
     0
170
     0
171
     2
172
     0
173
     0
174
     0
175
     0
176
     0
177
     0
178
     0
  0
DIMSTYLE
  2
COTATIONS_OK
 70
     0
  3

  4

  5
OBLIQUE
  6

  7

 40
1.0
 41
10.0
 42
0.0
 43
5.0
 44
5.0
 45
0.0
 46
0.0
 47
0.0
 48
0.0
140
15.0
141
2.5
142
0.0
143
0.03937007874016
144
0.01
145
0.0
146
1.0
147
5.0
 71
     0
 72
     0
 73
     0
 74
     0
 75
     0
 76
     0
 77
     1
 78
     1
170
     0
171
     3
172
     1
173
     0
174
     0
175
     0
176
     0
177
     0
178
     0
  0
DIMSTYLE
  2
COTES_OK
 70
     0
  3

  4

  5
OBLIQUE
  6

  7

 40
1.0
 41
10.0
 42
0.0
 43
5.0
 44
10.0
 45
0.0
 46
0.0
 47
0.0
 48
0.000000001
140
15.0
141
3.0
142
0.0
143
0.03937007874016
144
0.01
145
0.0
146
1.0
147
5.0
 71
     0
 72
     0
 73
     0
 74
     0
 75
     0
 76
     0
 77
     1
 78
     1
170
     0
171
     3
172
     1
173
     0
174
     0
175
     0
176
     0
177
     0
178
     0
  0
ENDTAB
  0
ENDSEC
  0
SECTION
  2
BLOCKS
  0
BLOCK
  8
0
  2
$MODEL_SPACE
 70
     0
 10
0.0
 20
0.0
 30
0.0
  3
$MODEL_SPACE
  1

  0
ENDBLK
  5
1C
  8
0
  0
BLOCK
 67
     1
  8
0
  2
$PAPER_SPACE
 70
     0
 10
0.0
 20
0.0
 30
0.0
  3
$PAPER_SPACE
  1

  0
ENDBLK
  5
C220
 67
     1
  8
0
  0
BLOCK
  8
0
  2
LIGNE_NOMENCLATURE
 70
     2
 10
0.0
 20
0.0
 30
0.0
  3
LIGNE_NOMENCLATURE
  1

  0
ATTDEF
  5
A049
  8
TEXTE_MOYEN
 10
6.75
 20
2.5
 30
0.0
 40
2.5
  1

 72
     4
 11
6.75
 21
2.5
 31
0.0
  3
REP
  2
REP
 70
     0
  0
ATTDEF
  5
A04A
  8
TEXTE_MOYEN
 10
19.25
 20
2.5
 30
0.0
 40
2.5
  1

 72
     4
 11
19.25
 21
2.5
 31
0.0
  3
Nb
  2
NB
 70
     0
  0
ATTDEF
  5
A04B
  8
TEXTE_MOYEN
 10
26.0
 20
1.25
 30
0.0
 40
2.5
  1

 11
26.0
 21
2.5
 31
0.0
  3
Désignation
  2
DESIGNATION
 70
     0
 74
     2
  0
ATTDEF
  5
A04C
  8
TEXTE_MOYEN
 10
101.0
 20
1.25
 30
0.0
 40
2.5
  1

 11
101.0
 21
2.5
 31
0.0
  3
Référence
  2
REFERENCE/MATIERE
 70
     0
 74
     2
  0
ATTDEF
  5
A04D
  8
TEXTE_MOYEN
 10
156.0
 20
1.25
 30
0.0
 40
2.5
  1

 11
156.0
 21
2.5
 31
0.0
  3
Observations
  2
OBSERVATIONS
 70
     0
 74
     2
  0
LINE
  5
A04E
  8
TRAIT_FIN
 10
0.0
 20
5.0
 30
0.0
 11
200.0
 21
5.0
 31
0.0
  0
LINE
  5
A04F
  8
TRAIT_FORT
 10
0.0
 20
5.0
 30
0.0
 11
0.0
 21
0.0
 31
0.0
  0
LINE
  5
A050
  8
TRAIT_FORT
 10
13.5
 20
5.0
 30
0.0
 11
13.5
 21
0.0
 31
0.0
  0
LINE
  5
A051
  8
TRAIT_FORT
 10
100.0
 20
5.0
 30
0.0
 11
100.0
 21
0.0
 31
0.0
  0
LINE
  5
A052
  8
TRAIT_FORT
 10
155.0
 20
5.0
 30
0.0
 11
155.0
 21
0.0
 31
0.0
  0
LINE
  5
A053
  8
TRAIT_FORT
 10
25.0
 20
5.0
 30
0.0
 11
25.0
 21
0.0
 31
0.0
  0
ENDBLK
  5
164B
  8
0
  0
BLOCK
  8
0
  2
_DOTSMALL
 70
     0
 10
0.0
 20
0.0
 30
0.0
  3
_DOTSMALL
  1

  0
POLYLINE
  5
5D30
  8
0
  6
BYBLOCK
 62
     0
 66
     1
 10
0.0
 20
0.0
 30
0.0
 70
     1
 40
0.5
 41
0.5
  0
VERTEX
  5
C273
  8
0
  6
BYBLOCK
 62
     0
 10
-0.0625
 20
0.0
 30
0.0
 42
1.0
  0
VERTEX
  5
C274
  8
0
  6
BYBLOCK
 62
     0
 10
0.0625
 20
0.0
 30
0.0
 42
1.0
  0
SEQEND
  5
C275
  8
0
  6
BYBLOCK
 62
     0
  0
ENDBLK
  5
5D31
  8
0
  0
BLOCK
  8
0
  2
1
 70
     2
 10
0.0
 20
0.0
 30
0.0
  3
1
  1

  0
CIRCLE
  5
5D35
  8
COTES
 10
0.0
 20
0.0
 30
0.0
 40
80.0
  0
ATTDEF
  5
5D36
  8
COTES_1-20
 10
-91.7693866259646853
 20
11.96781202008086
 30
0.0
 40
50.0
  1

 72
     2
 11
-91.7693866259646853
 21
11.96781202008086
 31
0.0
  3
%%uTXT
  2
%%uTXT
 70
     0
1001
AcDbAttr
1070
     0
1070
     1
  0
ATTDEF
  5
5D37
  8
TEXTE_GROS
 10
-0.0000000000000031
 20
-50.0
 30
0.0
 40
100.0
  1

 72
     1
 11
0.0
 21
0.0
 31
0.0
  3
repère
  2
RP
 70
     0
 74
     2
  0
ENDBLK
  5
5D38
  8
0
  0
BLOCK
  8
0
  2
RB
 70
     2
 10
0.0
 20
0.0
 30
0.0
  3
RB
  1

  0
CIRCLE
  5
7C46
  8
COTES
  6
BYBLOCK
 62
     0
 10
-0.0000000000000003
 20
-4.0
 30
0.0
 40
4.0
  0
ATTDEF
  5
7C47
  8
COTES
  6
BYBLOCK
 62
     3
 10
-0.0000000000000004
 20
-6.25
 30
0.0
 40
4.5
  1

 72
     1
 11
-0.0000000000000003
 21
-4.0
 31
0.0
  3
repère
  2
RP
 70
     0
 74
     2
  0
ENDBLK
  5
5D3E
  8
0
  0
BLOCK
  8
0
  2
REP
 70
     2
 10
0.0
 20
0.0
 30
0.0
  3
REP
  1

  0
CIRCLE
  5
864B
  8
TRAIT_FORT
  6
BYBLOCK
 62
     0
 10
0.5
 20
-4.0
 30
0.0
 40
4.299999999999998
  0
ATTDEF
  5
864C
  8
COTES
  6
BYBLOCK
 62
     3
 10
0.4999999999999999
 20
-3.5907407424765552
 30
0.0
 40
2.5
  1

 72
     1
 11
0.5
 21
-2.3407407424765552
 31
0.0
  3
PLAN
  2
00
 70
     0
 74
     2
  0
LINE
  5
864D
  8
TRAIT_FORT
  6
BYBLOCK
 62
     0
 10
-3.799999999999998
 20
-3.9999999999999978
 30
0.0
 11
4.799999999999998
 21
-4.0
 31
0.0
  0
ATTDEF
  5
864E
  8
COTES
  6
BYBLOCK
 62
     3
 10
0.499999999999999
 20
-6.9329629407129669
 30
0.0
 40
2.5
  1

 72
     1
 11
0.499999999999999
 21
-5.6829629407129669
 31
0.0
  3
REP
  2
00
 70
     0
 74
     2
  0
ENDBLK
  5
6F5B
  8
0
  0
BLOCK
  8
0
  2
CADRE_A4H
 70
     0
 10
0.0
 20
0.0
 30
0.0
  3
CADRE_A4H
  1

  0
POLYLINE
  5
A81D
  8
TRAIT_FORT
 66
     1
 10
0.0
 20
0.0
 30
0.0
 70
     1
  0
VERTEX
  5
C30E
  8
TRAIT_FORT
 10
-0.0000000000000355
 20
-188.0
 30
0.0
  0
VERTEX
  5
C30F
  8
TRAIT_FORT
 10
0.0
 20
0.0
 30
0.0
  0
VERTEX
  5
C310
  8
TRAIT_FORT
 10
-275.0
 20
0.0
 30
0.0
  0
VERTEX
  5
C311
  8
TRAIT_FORT
 10
-275.0
 20
-187.9999999999998863
 30
0.0
  0
SEQEND
  5
C312
  8
TRAIT_FORT
  0
POLYLINE
  5
A81E
  8
TRAIT_FIN
 66
     1
 10
0.0
 20
0.0
 30
0.0
 70
     1
  0
VERTEX
  5
C313
  8
TRAIT_FIN
 10
4.9999999999999627
 20
-193.0
 30
0.0
  0
VERTEX
  5
C314
  8
TRAIT_FIN
 10
5.0
 20
5.0
 30
0.0
  0
VERTEX
  5
C315
  8
TRAIT_FIN
 10
-279.9999999999998863
 20
5.0
 30
0.0
  0
VERTEX
  5
C316
  8
TRAIT_FIN
 10
-280.0000000000001137
 20
-192.9999999999998863
 30
0.0
  0
SEQEND
  5
C317
  8
TRAIT_FIN
  0
POLYLINE
  5
A827
  8
VUES
 66
     1
 10
0.0
 20
0.0
 30
0.0
  0
VERTEX
  5
C318
  8
VUES
 10
-279.9999999999998863
 20
10.0
 30
0.0
  0
VERTEX
  5
C319
  8
VUES
 10
-285.0
 20
10.0
 30
0.0
  0
VERTEX
  5
C31A
  8
VUES
 10
-285.0
 20
5.0000000000000231
 30
0.0
  0
SEQEND
  5
C31B
  8
VUES
  0
POLYLINE
  5
A828
  8
VUES
 66
     1
 10
0.0
 20
0.0
 30
0.0
  0
VERTEX
  5
C31C
  8
VUES
 10
-285.0000000000001137
 20
-192.9999999999998863
 30
0.0
  0
VERTEX
  5
C31D
  8
VUES
 10
-285.0000000000001137
 20
-197.9999999999998863
 30
0.0
  0
VERTEX
  5
C31E
  8
VUES
 10
-280.0
 20
-197.9999999999998863
 30
0.0
  0
SEQEND
  5
C31F
  8
VUES
  0
POLYLINE
  5
A829
  8
VUES
 66
     1
 10
0.0
 20
0.0
 30
0.0
  0
VERTEX
  5
C320
  8
VUES
 10
4.9999999999998863
 20
-198.0
 30
0.0
  0
VERTEX
  5
C321
  8
VUES
 10
9.9999999999999627
 20
-198.0
 30
0.0
  0
VERTEX
  5
C322
  8
VUES
 10
9.9999999999999627
 20
-192.9999999999998863
 30
0.0
  0
SEQEND
  5
C323
  8
VUES
  0
POLYLINE
  5
A82A
  8
VUES
 66
     1
 10
0.0
 20
0.0
 30
0.0
  0
VERTEX
  5
C324
  8
VUES
 10
10.0
 20
5.0000000000000284
 30
0.0
  0
VERTEX
  5
C325
  8
VUES
 10
10.0
 20
10.0
 30
0.0
  0
VERTEX
  5
C326
  8
VUES
 10
4.9999999999999627
 20
10.0
 30
0.0
  0
SEQEND
  5
C327
  8
VUES
  0
ENDBLK
  5
7A14
  8
0
  0
BLOCK
  8
0
  2
CADRE_A3H
 70
     0
 10
0.0
 20
0.0
 30
0.0
  3
CADRE_A3H
  1

  0
POLYLINE
  5
A6C5
  8
TRAIT_FORT
 66
     1
 10
0.0
 20
0.0
 30
0.0
 70
     1
  0
VERTEX
  5
C2A6
  8
TRAIT_FORT
 10
-390.0
 20
0.0
 30
0.0
  0
VERTEX
  5
C2A7
  8
TRAIT_FORT
 10
0.0
 20
0.0
 30
0.0
  0
VERTEX
  5
C2A8
  8
TRAIT_FORT
 10
0.0
 20
-277.0
 30
0.0
  0
VERTEX
  5
C2A9
  8
TRAIT_FORT
 10
-390.0
 20
-277.0
 30
0.0
  0
SEQEND
  5
C2AA
  8
TRAIT_FORT
  0
LINE
  5
A6C6
  8
TRAIT_FIN
 10
-200.0
 20
4.5
 30
0.0
 11
-200.0
 21
0.0
 31
0.0
  0
LINE
  5
A6C7
  8
TRAIT_FIN
 10
-200.0
 20
-277.0
 30
0.0
 11
-200.0
 21
-281.5
 31
0.0
  0
POLYLINE
  5
A6CB
  8
TRAIT_FIN
 66
     1
 10
0.0
 20
0.0
 30
0.0
 70
     1
  0
VERTEX
  5
C2AB
  8
TRAIT_FIN
 10
-394.5
 20
4.5
 30
0.0
  0
VERTEX
  5
C2AC
  8
TRAIT_FIN
 10
4.5
 20
4.5
 30
0.0
  0
VERTEX
  5
C2AD
  8
TRAIT_FIN
 10
4.5
 20
-281.5
 30
0.0
  0
VERTEX
  5
C2AE
  8
TRAIT_FIN
 10
-394.4999999999997726
 20
-281.5
 30
0.0
  0
SEQEND
  5
C2AF
  8
TRAIT_FIN
  0
POLYLINE
  5
A6D6
  8
VUES
 66
     1
 10
0.0
 20
0.0
 30
0.0
  0
VERTEX
  5
C2B0
  8
VUES
 10
-409.0
 20
-5.000000000000056
 30
0.0
  0
VERTEX
  5
C2B1
  8
VUES
 10
-409.0
 20
9.0
 30
0.0
  0
VERTEX
  5
C2B2
  8
VUES
 10
-395.0000000000002274
 20
9.0
 30
0.0
  0
SEQEND
  5
C2B3
  8
VUES
  0
POLYLINE
  5
A6D7
  8
VUES
 66
     1
 10
0.0
 20
0.0
 30
0.0
  0
VERTEX
  5
C2B4
  8
VUES
 10
-395.0000000000002274
 20
-286.0
 30
0.0
  0
VERTEX
  5
C2B5
  8
VUES
 10
-409.0
 20
-286.0
 30
0.0
  0
VERTEX
  5
C2B6
  8
VUES
 10
-409.0
 20
-271.9999999999998863
 30
0.0
  0
SEQEND
  5
C2B7
  8
VUES
  0
POLYLINE
  5
A6D8
  8
VUES
 66
     1
 10
0.0
 20
0.0
 30
0.0
  0
VERTEX
  5
C2B8
  8
VUES
 10
9.0
 20
-271.9999999999998863
 30
0.0
  0
VERTEX
  5
C2B9
  8
VUES
 10
9.0
 20
-286.0
 30
0.0
  0
VERTEX
  5
C2BA
  8
VUES
 10
-4.9999999999999458
 20
-286.0
 30
0.0
  0
SEQEND
  5
C2BB
  8
VUES
  0
POLYLINE
  5
A6D9
  8
VUES
 66
     1
 10
0.0
 20
0.0
 30
0.0
  0
VERTEX
  5
C2BC
  8
VUES
 10
-4.9999999999997708
 20
9.0
 30
0.0
  0
VERTEX
  5
C2BD
  8
VUES
 10
9.0
 20
9.0
 30
0.0
  0
VERTEX
  5
C2BE
  8
VUES
 10
9.0
 20
-5.0000000000000302
 30
0.0
  0
SEQEND
  5
C2BF
  8
VUES
  0
ENDBLK
  5
7A21
  8
0
  0
BLOCK
  8
0
  2
CADRE_A2
 70
     0
 10
0.0
 20
0.0
 30
0.0
  3
CADRE_A2
  1

  0
LINE
  5
A77C
  8
TRAIT_FIN
 10
-200.0
 20
-4.9999999999999707
 30
0.0
 11
-200.0
 21
0.0
 31
0.0
  0
LINE
  5
A77D
  8
TRAIT_FIN
 10
5.0
 20
287.0
 30
0.0
 11
0.0
 21
287.0
 31
0.0
  0
LINE
  5
A77E
  8
TRAIT_FIN
 10
-564.0
 20
287.0
 30
0.0
 11
-569.0
 21
287.0
 31
0.0
  0
LINE
  5
A77F
  8
TRAIT_FIN
 10
-410.0
 20
400.0
 30
0.0
 11
-410.0
 21
405.0
 31
0.0
  0
LINE
  5
A780
  8
TRAIT_FIN
 10
-410.0
 20
-4.9999999999999432
 30
0.0
 11
-410.0
 21
0.0000000000000284
 31
0.0
  0
LINE
  5
A781
  8
TRAIT_FIN
 10
-200.0
 20
400.0
 30
0.0
 11
-200.0
 21
405.0
 31
0.0
  0
POLYLINE
  5
A783
  8
TRAIT_FORT
 66
     1
 10
0.0
 20
0.0
 30
0.0
 70
     1
  0
VERTEX
  5
C2C0
  8
TRAIT_FORT
 10
-564.0
 20
400.0
 30
0.0
  0
VERTEX
  5
C2C1
  8
TRAIT_FORT
 10
0.0
 20
400.0
 30
0.0
  0
VERTEX
  5
C2C2
  8
TRAIT_FORT
 10
0.0
 20
0.0
 30
0.0
  0
VERTEX
  5
C2C3
  8
TRAIT_FORT
 10
-564.0
 20
0.0
 30
0.0
  0
SEQEND
  5
C2C4
  8
TRAIT_FORT
  0
POLYLINE
  5
A784
  8
TRAIT_FIN
 66
     1
 10
0.0
 20
0.0
 30
0.0
 70
     1
  0
VERTEX
  5
C2C5
  8
TRAIT_FIN
 10
-569.0
 20
405.0
 30
0.0
  0
VERTEX
  5
C2C6
  8
TRAIT_FIN
 10
5.0
 20
405.0
 30
0.0
  0
VERTEX
  5
C2C7
  8
TRAIT_FIN
 10
5.0
 20
-5.0
 30
0.0
  0
VERTEX
  5
C2C8
  8
TRAIT_FIN
 10
-569.0
 20
-5.0
 30
0.0
  0
SEQEND
  5
C2C9
  8
TRAIT_FIN
  0
POLYLINE
  5
A78C
  8
TRAIT_FORT
 66
     1
 10
0.0
 20
0.0
 30
0.0
  0
VERTEX
  5
C2CA
  8
TRAIT_FORT
 10
-583.0
 20
384.9999999999997726
 30
0.0
  0
VERTEX
  5
C2CB
  8
TRAIT_FORT
 10
-583.0
 20
409.0
 30
0.0
  0
VERTEX
  5
C2CC
  8
TRAIT_FORT
 10
-559.0000000000001137
 20
409.0
 30
0.0
  0
SEQEND
  5
C2CD
  8
TRAIT_FORT
  0
POLYLINE
  5
A78D
  8
TRAIT_FORT
 66
     1
 10
0.0
 20
0.0
 30
0.0
  0
VERTEX
  5
C2CE
  8
TRAIT_FORT
 10
-558.9999999999997726
 20
-9.0
 30
0.0
  0
VERTEX
  5
C2CF
  8
TRAIT_FORT
 10
-583.0
 20
-9.0
 30
0.0
  0
VERTEX
  5
C2D0
  8
TRAIT_FORT
 10
-583.0
 20
19.9999999999998899
 30
0.0
  0
SEQEND
  5
C2D1
  8
TRAIT_FORT
  0
POLYLINE
  5
A78E
  8
TRAIT_FORT
 66
     1
 10
0.0
 20
0.0
 30
0.0
  0
VERTEX
  5
C2D2
  8
TRAIT_FORT
 10
9.0
 20
14.9999999999998792
 30
0.0
  0
VERTEX
  5
C2D3
  8
TRAIT_FORT
 10
9.0
 20
-9.0
 30
0.0
  0
VERTEX
  5
C2D4
  8
TRAIT_FORT
 10
-15.0000000000000302
 20
-9.0
 30
0.0
  0
SEQEND
  5
C2D5
  8
TRAIT_FORT
  0
POLYLINE
  5
A78F
  8
TRAIT_FORT
 66
     1
 10
0.0
 20
0.0
 30
0.0
  0
VERTEX
  5
C2D6
  8
TRAIT_FORT
 10
-14.9999999999998792
 20
409.0
 30
0.0
  0
VERTEX
  5
C2D7
  8
TRAIT_FORT
 10
9.0
 20
409.0
 30
0.0
  0
VERTEX
  5
C2D8
  8
TRAIT_FORT
 10
9.0
 20
384.9999999999997726
 30
0.0
  0
SEQEND
  5
C2D9
  8
TRAIT_FORT
  0
ENDBLK
  5
7A3B
  8
0
  0
BLOCK
  8
0
  2
CADRE_A1
 70
     0
 10
0.0
 20
0.0
 30
0.0
  3
CADRE_A1
  1

  0
LINE
  5
A7AC
  8
TRAIT_FIN
 10
-200.0
 20
-5.0000000000000471
 30
0.0
 11
-200.0
 21
-0.0000000000000782
 31
0.0
  0
LINE
  5
A7AD
  8
TRAIT_FIN
 10
5.0
 20
287.0
 30
0.0
 11
0.0
 21
287.0
 31
0.0
  0
LINE
  5
A7AE
  8
TRAIT_FIN
 10
-811.0
 20
287.0000000000001137
 30
0.0
 11
-816.0
 21
287.0000000000001137
 31
0.0
  0
LINE
  5
A7AF
  8
TRAIT_FIN
 10
-200.0
 20
574.0
 30
0.0
 11
-200.0
 21
579.0
 31
0.0
  0
LINE
  5
A7B0
  8
TRAIT_FIN
 10
-410.0
 20
574.0000000000001137
 30
0.0
 11
-410.0
 21
579.0
 31
0.0
  0
LINE
  5
A7B1
  8
TRAIT_FIN
 10
-410.0
 20
-5.0000000000000187
 30
0.0
 11
-410.0
 21
-0.0000000000000497
 31
0.0
  0
LINE
  5
A7B2
  8
TRAIT_FIN
 10
-620.0
 20
-4.9999999999999973
 30
0.0
 11
-620.0
 21
-0.0000000000000249
 31
0.0
  0
LINE
  5
A7B3
  8
TRAIT_FIN
 10
-620.0
 20
574.0000000000001137
 30
0.0
 11
-620.0
 21
579.0
 31
0.0
  0
POLYLINE
  5
A7B5
  8
TRAIT_FORT
 66
     1
 10
0.0
 20
0.0
 30
0.0
 70
     1
  0
VERTEX
  5
C2DA
  8
TRAIT_FORT
 10
-811.0
 20
574.0
 30
0.0
  0
VERTEX
  5
C2DB
  8
TRAIT_FORT
 10
0.0
 20
574.0
 30
0.0
  0
VERTEX
  5
C2DC
  8
TRAIT_FORT
 10
0.0
 20
-0.0000000000000249
 30
0.0
  0
VERTEX
  5
C2DD
  8
TRAIT_FORT
 10
-811.0
 20
-0.0000000000000266
 30
0.0
  0
SEQEND
  5
C2DE
  8
TRAIT_FORT
  0
POLYLINE
  5
A7B6
  8
TRAIT_FIN
 66
     1
 10
0.0
 20
0.0
 30
0.0
 70
     1
  0
VERTEX
  5
C2DF
  8
TRAIT_FIN
 10
-816.0
 20
579.0
 30
0.0
  0
VERTEX
  5
C2E0
  8
TRAIT_FIN
 10
4.9999999999998863
 20
579.0
 30
0.0
  0
VERTEX
  5
C2E1
  8
TRAIT_FIN
 10
5.0
 20
-5.0000000000000231
 30
0.0
  0
VERTEX
  5
C2E2
  8
TRAIT_FIN
 10
-815.9999999999995453
 20
-5.0000000000000258
 30
0.0
  0
SEQEND
  5
C2E3
  8
TRAIT_FIN
  0
POLYLINE
  5
A7BE
  8
TRAIT_FORT
 66
     1
 10
0.0
 20
0.0
 30
0.0
  0
VERTEX
  5
C2E4
  8
TRAIT_FORT
 10
-806.0000000000004547
 20
-9.0000000000000231
 30
0.0
  0
VERTEX
  5
C2E5
  8
TRAIT_FORT
 10
-830.0
 20
-9.0000000000000231
 30
0.0
  0
VERTEX
  5
C2E6
  8
TRAIT_FORT
 10
-830.0
 20
14.9999999999998899
 30
0.0
  0
SEQEND
  5
C2E7
  8
TRAIT_FORT
  0
POLYLINE
  5
A7BF
  8
TRAIT_FORT
 66
     1
 10
0.0
 20
0.0
 30
0.0
  0
VERTEX
  5
C2E8
  8
TRAIT_FORT
 10
-830.0
 20
559.0000000000001137
 30
0.0
  0
VERTEX
  5
C2E9
  8
TRAIT_FORT
 10
-830.0
 20
583.0
 30
0.0
  0
VERTEX
  5
C2EA
  8
TRAIT_FORT
 10
-806.0
 20
583.0
 30
0.0
  0
SEQEND
  5
C2EB
  8
TRAIT_FORT
  0
POLYLINE
  5
A7C0
  8
TRAIT_FORT
 66
     1
 10
0.0
 20
0.0
 30
0.0
  0
VERTEX
  5
C2EC
  8
TRAIT_FORT
 10
-15.0000000000001101
 20
583.0
 30
0.0
  0
VERTEX
  5
C2ED
  8
TRAIT_FORT
 10
9.0
 20
583.0
 30
0.0
  0
VERTEX
  5
C2EE
  8
TRAIT_FORT
 10
9.0
 20
559.0
 30
0.0
  0
SEQEND
  5
C2EF
  8
TRAIT_FORT
  0
POLYLINE
  5
A7C1
  8
TRAIT_FORT
 66
     1
 10
0.0
 20
0.0
 30
0.0
  0
VERTEX
  5
C2F0
  8
TRAIT_FORT
 10
9.0
 20
14.9999999999998792
 30
0.0
  0
VERTEX
  5
C2F1
  8
TRAIT_FORT
 10
9.0
 20
-9.0000000000000266
 30
0.0
  0
VERTEX
  5
C2F2
  8
TRAIT_FORT
 10
-15.0000000000000995
 20
-9.0000000000000231
 30
0.0
  0
SEQEND
  5
C2F3
  8
TRAIT_FORT
  0
ENDBLK
  5
7A55
  8
0
  0
BLOCK
  8
0
  2
CADRE_A0
 70
     0
 10
0.0
 20
0.0
 30
0.0
  3
CADRE_A0
  1

  0
LINE
  5
A7DE
  8
TRAIT_FIN
 10
-200.999999999999801
 20
1.0
 30
0.0
 11
-200.999999999999801
 21
-4.0
 31
0.0
  0
LINE
  5
A7DF
  8
TRAIT_FIN
 10
-200.9999999999996874
 20
822.0
 30
0.0
 11
-200.9999999999996874
 21
827.0
 31
0.0
  0
LINE
  5
A7E0
  8
TRAIT_FIN
 10
-1160.0
 20
288.0000000000001137
 30
0.0
 11
-1165.0
 21
288.0000000000001137
 31
0.0
  0
LINE
  5
A7E1
  8
TRAIT_FIN
 10
-0.9999999999998523
 20
288.0
 30
0.0
 11
4.0000000000001474
 21
288.0
 31
0.0
  0
LINE
  5
A7E2
  8
TRAIT_FIN
 10
-1160.0
 20
585.0000000000001137
 30
0.0
 11
-1165.0
 21
585.0000000000001137
 31
0.0
  0
LINE
  5
A7E3
  8
TRAIT_FIN
 10
-0.9999999999998523
 20
585.0
 30
0.0
 11
4.0000000000001474
 21
585.0
 31
0.0
  0
LINE
  5
A7E4
  8
TRAIT_FIN
 10
-410.9999999999997158
 20
1.0
 30
0.0
 11
-410.9999999999997158
 21
-4.0
 31
0.0
  0
LINE
  5
A7E5
  8
TRAIT_FIN
 10
-410.9999999999997158
 20
822.0
 30
0.0
 11
-410.9999999999997158
 21
827.0
 31
0.0
  0
LINE
  5
A7E6
  8
TRAIT_FIN
 10
-830.9999999999995453
 20
1.0
 30
0.0
 11
-830.9999999999995453
 21
-4.0
 31
0.0
  0
LINE
  5
A7E7
  8
TRAIT_FIN
 10
-830.9999999999995453
 20
822.0
 30
0.0
 11
-830.9999999999995453
 21
827.0
 31
0.0
  0
LINE
  5
A7E8
  8
TRAIT_FIN
 10
-620.9999999999997726
 20
1.0
 30
0.0
 11
-620.9999999999997726
 21
-4.0
 31
0.0
  0
LINE
  5
A7E9
  8
TRAIT_FIN
 10
-620.9999999999997726
 20
822.0
 30
0.0
 11
-620.9999999999997726
 21
827.0
 31
0.0
  0
LINE
  5
A7EA
  8
TRAIT_FIN
 10
-1041.0
 20
1.0
 30
0.0
 11
-1041.0
 21
-4.0
 31
0.0
  0
LINE
  5
A7EB
  8
TRAIT_FIN
 10
-1041.0
 20
822.0
 30
0.0
 11
-1041.0
 21
827.0
 31
0.0
  0
POLYLINE
  5
A7ED
  8
TRAIT_FORT
 66
     1
 10
0.0
 20
0.0
 30
0.0
 70
     1
  0
VERTEX
  5
C2F4
  8
TRAIT_FORT
 10
-1160.0
 20
1.0
 30
0.0
  0
VERTEX
  5
C2F5
  8
TRAIT_FORT
 10
-0.9999999999997726
 20
1.0
 30
0.0
  0
VERTEX
  5
C2F6
  8
TRAIT_FORT
 10
-0.9999999999999971
 20
822.0
 30
0.0
  0
VERTEX
  5
C2F7
  8
TRAIT_FORT
 10
-1160.0
 20
822.0
 30
0.0
  0
SEQEND
  5
C2F8
  8
TRAIT_FORT
  0
POLYLINE
  5
A7EE
  8
TRAIT_FIN
 66
     1
 10
0.0
 20
0.0
 30
0.0
 70
     1
  0
VERTEX
  5
C2F9
  8
TRAIT_FIN
 10
-1165.0
 20
-4.0
 30
0.0
  0
VERTEX
  5
C2FA
  8
TRAIT_FIN
 10
4.0000000000002274
 20
-4.0
 30
0.0
  0
VERTEX
  5
C2FB
  8
TRAIT_FIN
 10
4.0
 20
826.9999999999998863
 30
0.0
  0
VERTEX
  5
C2FC
  8
TRAIT_FIN
 10
-1165.0
 20
827.0
 30
0.0
  0
SEQEND
  5
C2FD
  8
TRAIT_FIN
  0
POLYLINE
  5
A7F6
  8
TRAIT_FORT
 66
     1
 10
0.0
 20
0.0
 30
0.0
  0
VERTEX
  5
C2FE
  8
TRAIT_FORT
 10
-1155.0
 20
831.0
 30
0.0
  0
VERTEX
  5
C2FF
  8
TRAIT_FORT
 10
-1179.0
 20
831.0
 30
0.0
  0
VERTEX
  5
C300
  8
TRAIT_FORT
 10
-1179.0
 20
806.9999999999995453
 30
0.0
  0
SEQEND
  5
C301
  8
TRAIT_FORT
  0
POLYLINE
  5
A7F7
  8
TRAIT_FORT
 66
     1
 10
0.0
 20
0.0
 30
0.0
  0
VERTEX
  5
C302
  8
TRAIT_FORT
 10
-1179.0
 20
16.0000000000001101
 30
0.0
  0
VERTEX
  5
C303
  8
TRAIT_FORT
 10
-1179.0
 20
-8.0
 30
0.0
  0
VERTEX
  5
C304
  8
TRAIT_FORT
 10
-1155.0
 20
-8.0
 30
0.0
  0
SEQEND
  5
C305
  8
TRAIT_FORT
  0
POLYLINE
  5
A7F8
  8
TRAIT_FORT
 66
     1
 10
0.0
 20
0.0
 30
0.0
  0
VERTEX
  5
C306
  8
TRAIT_FORT
 10
-15.9999999999997708
 20
-8.0
 30
0.0
  0
VERTEX
  5
C307
  8
TRAIT_FORT
 10
8.0000000000002274
 20
-8.0
 30
0.0
  0
VERTEX
  5
C308
  8
TRAIT_FORT
 10
8.0000000000002185
 20
15.9999999999999201
 30
0.0
  0
SEQEND
  5
C309
  8
TRAIT_FORT
  0
POLYLINE
  5
A7F9
  8
TRAIT_FORT
 66
     1
 10
0.0
 20
0.0
 30
0.0
  0
VERTEX
  5
C30A
  8
TRAIT_FORT
 10
8.0000000000000089
 20
807.0
 30
0.0
  0
VERTEX
  5
C30B
  8
TRAIT_FORT
 10
8.0
 20
831.0
 30
0.0
  0
VERTEX
  5
C30C
  8
TRAIT_FORT
 10
-15.9999999999995701
 20
831.0
 30
0.0
  0
SEQEND
  5
C30D
  8
TRAIT_FORT
  0
ENDBLK
  5
7AC6
  8
0
  0
BLOCK
  8
0
  2
CARTOUCHE_A0_V1
 70
     2
 10
0.0
 20
0.0
 30
0.0
  3
CARTOUCHE_A0_V1
  1

  0
TEXT
  5
B65A
  8
TEXTE_FIN
 10
-66.5268226417019832
 20
9.0
 30
0.0
 40
2.0
  1
Dates
 50
0.0000008537736463
 41
0.9
1001
ACDBBLOCKREPETAG
1070
     1
1071
        0
1005
B65A
  0
TEXT
  5
B65B
  8
TRAIT_FORT
 10
-53.0
 20
60.0
 30
0.0
 40
2.5
  1
CLIENT :
 41
0.9
1001
ACDBBLOCKREPETAG
1070
     1
1071
        1
1005
B65B
  0
TEXT
  5
B65C
  8
TRAIT_FORT
 10
-53.0
 20
42.0
 30
0.0
 40
2.5
  1
AFFAIRE :
 41
0.9
1001
ACDBBLOCKREPETAG
1070
     1
1071
        2
1005
B65C
  0
TEXT
  5
B65D
  8
TRAIT_FORT
 10
-53.0
 20
24.7648911039591511
 30
0.0
 40
2.5
  1
PLAN No :
 50
0.0000008537736463
 41
0.9
1001
ACDBBLOCKREPETAG
1070
     1
1071
        3
1005
B65D
  0
LINE
  5
B65E
  8
TRAIT_FORT
 10
-5.0
 20
30.0
 30
0.0
 11
-55.0
 21
30.0
 31
0.0
1001
ACDBBLOCKREPETAG
1070
     1
1071
        4
1005
B65E
  0
LINE
  5
B65F
  8
TRAIT_FORT
 10
-55.0
 20
47.3333320617675781
 30
0.0
 11
-5.0
 21
47.3333320617675781
 31
0.0
1001
ACDBBLOCKREPETAG
1070
     1
1071
        5
1005
B65F
  0
LINE
  5
B660
  8
TRAIT_FORT
 10
-55.0
 20
12.0
 30
0.0
 11
-5.0
 21
12.0
 31
0.0
1001
ACDBBLOCKREPETAG
1070
     1
1071
        6
1005
B660
  0
TEXT
  5
B661
  8
TEXTE_FIN
 10
-116.8583872363514047
 20
9.0
 30
0.0
 40
2.0
  1
Modifications
 41
0.9
1001
ACDBBLOCKREPETAG
1070
     1
1071
        7
1005
B661
  0
TEXT
  5
B662
  8
TEXTE_FIN
 10
-173.2927962520290066
 20
9.0
 30
0.0
 40
2.0
  1
Dess.
 41
0.9
1001
ACDBBLOCKREPETAG
1070
     1
1071
        8
1005
B662
  0
LINE
  5
B663
  8
TRAIT_FORT
 10
-185.0
 20
40.0
 30
0.0
 11
-55.0
 21
40.0
 31
0.0
1001
ACDBBLOCKREPETAG
1070
     1
1071
        9
1005
B663
  0
LINE
  5
B664
  8
TRAIT_FORT
 10
-175.0
 20
35.0
 30
0.0
 11
-55.0
 21
35.0
 31
0.0
1001
ACDBBLOCKREPETAG
1070
     1
1071
       10
1005
B664
  0
LINE
  5
B665
  8
TRAIT_FORT
 10
-185.0
 20
30.0
 30
0.0
 11
-55.0
 21
30.0
 31
0.0
1001
ACDBBLOCKREPETAG
1070
     1
1071
       11
1005
B665
  0
LINE
  5
B666
  8
TRAIT_FORT
 10
-175.0
 20
25.0
 30
0.0
 11
-55.0
 21
25.0
 31
0.0
1001
ACDBBLOCKREPETAG
1070
     1
1071
       12
1005
B666
  0
LINE
  5
B667
  8
TRAIT_FORT
 10
-185.0
 20
20.0
 30
0.0
 11
-55.0
 21
20.0
 31
0.0
1001
ACDBBLOCKREPETAG
1070
     1
1071
       13
1005
B667
  0
LINE
  5
B668
  8
TRAIT_FORT
 10
-175.0
 20
15.0
 30
0.0
 11
-55.0
 21
15.0
 31
0.0
1001
ACDBBLOCKREPETAG
1070
     1
1071
       14
1005
B668
  0
LINE
  5
B669
  8
TRAIT_FORT
 10
-70.0
 20
45.0
 30
0.0
 11
-70.0
 21
5.0
 31
0.0
1001
ACDBBLOCKREPETAG
1070
     1
1071
       15
1005
B669
  0
LINE
  5
B66A
  8
TRAIT_FORT
 10
-165.0
 20
5.0
 30
0.0
 11
-165.0
 21
45.0
 31
0.0
1001
ACDBBLOCKREPETAG
1070
     1
1071
       16
1005
B66A
  0
LINE
  5
B66B
  8
TRAIT_FORT
 10
-5.0
 20
5.0
 30
0.0
 11
-5.0
 21
103.0
 31
0.0
1001
ACDBBLOCKREPETAG
1070
     1
1071
       17
1005
B66B
  0
LINE
  5
B66C
  8
TRAIT_FORT
 10
-11.25
 20
5.0
 30
0.0
 11
-11.25
 21
12.0
 31
0.0
1001
ACDBBLOCKREPETAG
1070
     1
1071
       18
1005
B66C
  0
LINE
  5
B66D
  8
TRAIT_FORT
 10
-17.5
 20
5.0
 30
0.0
 11
-17.5
 21
12.0
 31
0.0
1001
ACDBBLOCKREPETAG
1070
     1
1071
       19
1005
B66D
  0
LINE
  5
B66E
  8
TRAIT_FORT
 10
-23.75
 20
5.0
 30
0.0
 11
-23.75
 21
12.0
 31
0.0
1001
ACDBBLOCKREPETAG
1070
     1
1071
       20
1005
B66E
  0
LINE
  5
B66F
  8
TRAIT_FORT
 10
-30.0
 20
5.0
 30
0.0
 11
-30.0
 21
12.0
 31
0.0
1001
ACDBBLOCKREPETAG
1070
     1
1071
       21
1005
B66F
  0
LINE
  5
B670
  8
TRAIT_FORT
 10
-36.25
 20
5.0
 30
0.0
 11
-36.25
 21
12.0
 31
0.0
1001
ACDBBLOCKREPETAG
1070
     1
1071
       22
1005
B670
  0
LINE
  5
B671
  8
TRAIT_FORT
 10
-42.5
 20
5.0
 30
0.0
 11
-42.5
 21
12.0
 31
0.0
1001
ACDBBLOCKREPETAG
1070
     1
1071
       23
1005
B671
  0
LINE
  5
B672
  8
TRAIT_FORT
 10
-48.75
 20
5.0
 30
0.0
 11
-48.75
 21
12.0
 31
0.0
1001
ACDBBLOCKREPETAG
1070
     1
1071
       24
1005
B672
  0
LINE
  5
B673
  8
TRAIT_FORT
 10
-55.0
 20
5.0
 30
0.0
 11
-55.0
 21
65.0
 31
0.0
1001
ACDBBLOCKREPETAG
1070
     1
1071
       25
1005
B673
  0
LINE
  5
B674
  8
TRAIT_FORT
 10
-177.0
 20
5.0
 30
0.0
 11
-177.0
 21
45.0
 31
0.0
1001
ACDBBLOCKREPETAG
1070
     1
1071
       26
1005
B674
  0
LINE
  5
B675
  8
TRAIT_FORT
 10
-205.0
 20
5.0
 30
0.0
 11
-205.0
 21
103.0
 31
0.0
1001
ACDBBLOCKREPETAG
1070
     1
1071
       27
1005
B675
  0
TEXT
  5
B676
  8
TRAIT_FORT
 10
-203.0
 20
31.1140758208803305
 30
0.0
 40
2.5
  1
ECHELLE :
 41
0.9
1001
ACDBBLOCKREPETAG
1070
     1
1071
       28
1005
B676
  0
LINE
  5
B677
  8
TRAIT_FORT
 10
-205.0
 20
5.0
 30
0.0
 11
-5.0
 21
5.0
 31
0.0
1001
ACDBBLOCKREPETAG
1070
     1
1071
       29
1005
B677
  0
LINE
  5
B678
  8
TRAIT_FORT
 10
-55.0
 20
45.0
 30
0.0
 11
-205.0
 21
45.0
 31
0.0
1001
ACDBBLOCKREPETAG
1070
     1
1071
       30
1005
B678
  0
LINE
  5
B679
  8
TRAIT_FORT
 10
-205.0
 20
65.0
 30
0.0
 11
-5.0
 21
65.0
 31
0.0
1001
ACDBBLOCKREPETAG
1070
     1
1071
       31
1005
B679
  0
LINE
  5
B67A
  8
TRAIT_FORT
 10
-5.0
 20
96.0
 30
0.0
 11
-205.0
 21
96.0
 31
0.0
1001
ACDBBLOCKREPETAG
1070
     1
1071
       32
1005
B67A
  0
LINE
  5
B67B
  8
TRAIT_FORT
 10
-205.0
 20
103.0
 30
0.0
 11
-5.0
 21
103.0
 31
0.0
1001
ACDBBLOCKREPETAG
1070
     1
1071
       33
1005
B67B
  0
POLYLINE
  5
B67C
  8
TRAIT_FORT
 66
     1
 10
0.0
 20
0.0
 30
0.0
 70
     1
1001
ACDBBLOCKREPETAG
1070
     1
1071
       34
1005
B67C
  0
VERTEX
  5
C328
  8
TRAIT_FORT
 10
-54.0
 20
29.0
 30
0.0
  0
VERTEX
  5
C329
  8
TRAIT_FORT
 10
-6.0
 20
29.0
 30
0.0
  0
VERTEX
  5
C32A
  8
TRAIT_FORT
 10
-6.0
 20
13.0
 30
0.0
  0
VERTEX
  5
C32B
  8
TRAIT_FORT
 10
-54.0
 20
13.0
 30
0.0
  0
SEQEND
  5
C32C
  8
TRAIT_FORT
  0
LINE
  5
B67D
  8
TRAIT_FORT
 10
-205.0
 20
15.0
 30
0.0
 11
-175.0
 21
15.0
 31
0.0
1001
ACDBBLOCKREPETAG
1070
     1
1071
       35
1005
B67D
  0
LINE
  5
B67E
  8
TRAIT_FORT
 10
-205.0
 20
25.0
 30
0.0
 11
-175.0
 21
25.0
 31
0.0
1001
ACDBBLOCKREPETAG
1070
     1
1071
       36
1005
B67E
  0
LINE
  5
B67F
  8
TRAIT_FORT
 10
-205.0
 20
35.0
 30
0.0
 11
-175.0
 21
35.0
 31
0.0
1001
ACDBBLOCKREPETAG
1070
     1
1071
       37
1005
B67F
  0
TEXT
  5
B680
  8
TRAIT_FORT
 10
-203.0
 20
21.2652161624298515
 30
0.0
 40
2.5
  1
FOLIO :
 41
0.9
1001
ACDBBLOCKREPETAG
1070
     1
1071
       38
1005
B680
  0
INSERT
  5
B681
  8
TRAIT_FORT
  2
*U19
 10
0.0
 20
0.0
 30
0.0
  0
LINE
  5
B682
  8
TRAIT_FORT
 10
-185.0
 20
5.0
 30
0.0
 11
-185.0
 21
45.0
 31
0.0
1001
ACDBBLOCKREPETAG
1070
     1
1071
       40
1005
B682
  0
TEXT
  5
B683
  8
TEXTE_FIN
 10
-181.7347858733421049
 20
9.0
 30
0.0
 40
2.0
  1
Ind.
 41
0.9
1001
ACDBBLOCKREPETAG
1070
     1
1071
       41
1005
B683
  0
TEXT
  5
B684
  8
TRAIT_FORT
 10
-203.0
 20
11.2652161624298497
 30
0.0
 40
2.5
  1
FORMAT :
 41
0.9
1001
ACDBBLOCKREPETAG
1070
     1
1071
       42
1005
B684
  0
ATTDEF
  5
B685
  8
TEXTE_MOYEN
 10
-53.028513810631452
 20
7.1017198023089341
 30
0.0
 40
2.5
  1
\U+0278
  3
\U+0278
  2
\U+0278
 70
     0
1001
ACDBBLOCKREPETAG
1070
     1
1071
       43
1005
0
1001
AcDbAttr
1070
     0
1070
     1
  0
ATTDEF
  5
B686
  8
TEXTE_MOYEN
 10
-175.3614274216683953
 20
16.3106297519419705
 30
0.0
 40
2.5
  1

  3
Dess indA
  2
Dess\U+0278
 70
     0
1001
ACDBBLOCKREPETAG
1070
     1
1071
       44
1005
0
1001
AcDbAttr
1070
     0
1070
     1
  0
ATTDEF
  5
B687
  8
TEXTE_MOYEN
 10
-163.3614274216683953
 20
16.3106297519419705
 30
0.0
 40
2.5
  1

  3
Cont ind0
  2
CONT\U+0278
 70
     0
1001
ACDBBLOCKREPETAG
1070
     1
1071
       45
1005
0
1001
AcDbAttr
1070
     0
1070
     1
  0
ATTDEF
  5
B688
  8
TEXTE_MOYEN
 10
-150.5790099644038094
 20
16.3106297519419705
 30
0.0
 40
2.5
  1
Première diffusion
  3
\U+0278_modif :
  2
\U+0278_MODIF
 70
     0
1001
ACDBBLOCKREPETAG
1070
     1
1071
       46
1005
0
1001
AcDbAttr
1070
     0
1070
     1
  0
ATTDEF
  5
B689
  8
TEXTE_MOYEN
 10
-69.1858220024612365
 20
16.2390902067880916
 30
0.0
 40
2.5
  1

  3
\U+0278_date :
  2
\U+0278_DATE
 70
     0
1001
ACDBBLOCKREPETAG
1070
     1
1071
       47
1005
0
1001
AcDbAttr
1070
     0
1070
     1
  0
ATTDEF
  5
B68A
  8
TEXTE_MOYEN
 10
-182.4901240226948005
 20
16.3106297519419705
 30
0.0
 40
2.5
  1
\U+0278
  3
ind\U+0278
  2
\U+0278
 70
     0
1001
ACDBBLOCKREPETAG
1070
     1
1071
       48
1005
0
1001
AcDbAttr
1070
     0
1070
     1
  0
ATTDEF
  5
B68B
  8
TEXTE_GROS
 10
-202.0142296624761116
 20
6.790135760771931
 30
0.0
 40
2.5
  1

  3
FORMAT
  2
FORMAT
 70
     0
1001
ACDBBLOCKREPETAG
1070
     1
1071
       49
1005
0
  0
ATTDEF
  5
B68C
  8
TEXTE_GROS
 10
-118.1341349100080009
 20
84.4542888909634257
 30
0.0
 40
8.0
  1

 72
     1
 11
-104.5341349100080066
 21
84.4542888909634257
 31
0.0
  3
titre ?
  2
TITRE
 70
     0
1001
ACDBBLOCKREPETAG
1070
     1
1071
       50
1005
0
  0
ATTDEF
  5
B68D
  8
TEXTE_GROS
 10
-133.5757097131576074
 20
70.2204735361855228
 30
0.0
 40
8.0
  1

 72
     1
 11
-104.5341349100080066
 21
70.2204735361855228
 31
0.0
  3
sous-titre ?
  2
SOUS-TITRE
 70
     0
1001
ACDBBLOCKREPETAG
1070
     1
1071
       51
1005
0
  0
ATTDEF
  5
B68E
  8
TEXTE_GROS
 10
-50.7162016129686819
 20
32.7308203768460615
 30
0.0
 40
6.0
  1

 41
0.8
  3
Affaire ?
  2
AFFAIRE
 70
     0
1001
ACDBBLOCKREPETAG
1070
     1
1071
       52
1005
0
  0
ATTDEF
  5
B68F
  8
TEXTE_GROS
 10
-50.7162016129686819
 20
15.5188306144074204
 30
0.0
 40
6.0
  1

 41
0.8
  3
plan ?
  2
PLAN
 70
     0
1001
ACDBBLOCKREPETAG
1070
     1
1071
       53
1005
0
  0
ATTDEF
  5
B690
  8
TEXTE_GROS
 10
-50.7162016129686819
 20
50.143647955398599
 30
0.0
 40
6.0
  1

 41
0.8
  3
client ?
  2
CLIENT
 70
     0
1001
ACDBBLOCKREPETAG
1070
     1
1071
       54
1005
0
  0
ATTDEF
  5
B691
  8
TEXTE_GROS
 10
-202.0142296624761116
 20
16.7901357607719284
 30
0.0
 40
2.5
  1

  3
Folio
  2
FOLIO
 70
     0
1001
ACDBBLOCKREPETAG
1070
     1
1071
       55
1005
0
  0
ATTDEF
  5
B692
  8
TEXTE_GROS
 10
-202.0195296624760886
 20
26.5112691074104987
 30
0.0
 40
2.5
  1

  3
Echelle
  2
ECHELLE
 70
     0
1001
ACDBBLOCKREPETAG
1070
     1
1071
       56
1005
0
  0
ATTDEF
  5
B693
  8
TEXTE_MOYEN
 10
-46.778513810631452
 20
7.1017198023089341
 30
0.0
 40
2.5
  1

  3
A
  2
A
 70
     0
1001
ACDBBLOCKREPETAG
1070
     1
1071
       57
1005
0
1001
AcDbAttr
1070
     0
1070
     1
  0
ATTDEF
  5
B694
  8
TEXTE_MOYEN
 10
-175.3614274216683953
 20
21.3106297519419705
 30
0.0
 40
2.5
  1

  3
Dess indA
  2
DessA
 70
     0
1001
ACDBBLOCKREPETAG
1070
     1
1071
       58
1005
0
1001
AcDbAttr
1070
     0
1070
     1
  0
ATTDEF
  5
B695
  8
TEXTE_MOYEN
 10
-163.3614274216683953
 20
21.3106297519419705
 30
0.0
 40
2.5
  1

  3
Cont indA
  2
CONTA
 70
     0
1001
ACDBBLOCKREPETAG
1070
     1
1071
       59
1005
0
1001
AcDbAttr
1070
     0
1070
     1
  0
ATTDEF
  5
B696
  8
TEXTE_MOYEN
 10
-150.5790099644038094
 20
21.3106297519419705
 30
0.0
 40
2.5
  1

  3
A_modif :
  2
A_MODIF
 70
     0
1001
ACDBBLOCKREPETAG
1070
     1
1071
       60
1005
0
1001
AcDbAttr
1070
     0
1070
     1
  0
ATTDEF
  5
B697
  8
TEXTE_MOYEN
 10
-69.1858220024612365
 20
21.2390902067880916
 30
0.0
 40
2.5
  1

  3
A_date :
  2
A_DATE
 70
     0
1001
ACDBBLOCKREPETAG
1070
     1
1071
       61
1005
0
1001
AcDbAttr
1070
     0
1070
     1
  0
ATTDEF
  5
B698
  8
TEXTE_MOYEN
 10
-182.4901240226948005
 20
21.3106297519419705
 30
0.0
 40
2.5
  1

  3
indA
  2
A
 70
     0
1001
ACDBBLOCKREPETAG
1070
     1
1071
       62
1005
0
1001
AcDbAttr
1070
     0
1070
     1
  0
ATTDEF
  5
B699
  8
TEXTE_MOYEN
 10
-40.5285138106316865
 20
7.1017198023089341
 30
0.0
 40
2.5
  1

  3
B
  2
B
 70
     0
1001
ACDBBLOCKREPETAG
1070
     1
1071
       63
1005
0
1001
AcDbAttr
1070
     0
1070
     1
  0
ATTDEF
  5
B69A
  8
TEXTE_MOYEN
 10
-175.3614274216683953
 20
26.3106297519419705
 30
0.0
 40
2.5
  1

  3
Dess indB
  2
DessB
 70
     0
1001
ACDBBLOCKREPETAG
1070
     1
1071
       64
1005
0
1001
AcDbAttr
1070
     0
1070
     1
  0
ATTDEF
  5
B69B
  8
TEXTE_MOYEN
 10
-163.3614274216683953
 20
26.3106297519419705
 30
0.0
 40
2.5
  1

  3
Cont indB
  2
CONTB
 70
     0
1001
ACDBBLOCKREPETAG
1070
     1
1071
       65
1005
0
1001
AcDbAttr
1070
     0
1070
     1
  0
ATTDEF
  5
B69C
  8
TEXTE_MOYEN
 10
-150.5790099644038094
 20
26.3106297519419705
 30
0.0
 40
2.5
  1

  3
B_modif :
  2
B_MODIF
 70
     0
1001
ACDBBLOCKREPETAG
1070
     1
1071
       66
1005
0
1001
AcDbAttr
1070
     0
1070
     1
  0
ATTDEF
  5
B69D
  8
TEXTE_MOYEN
 10
-69.1858220024612365
 20
26.2390902067880916
 30
0.0
 40
2.5
  1

  3
B_date :
  2
B_DATE
 70
     0
1001
ACDBBLOCKREPETAG
1070
     1
1071
       67
1005
0
1001
AcDbAttr
1070
     0
1070
     1
  0
ATTDEF
  5
B69E
  8
TEXTE_MOYEN
 10
-182.4901240226948005
 20
26.3106297519419705
 30
0.0
 40
2.5
  1

  3
indB
  2
B
 70
     0
1001
ACDBBLOCKREPETAG
1070
     1
1071
       68
1005
0
1001
AcDbAttr
1070
     0
1070
     1
  0
ATTDEF
  5
B69F
  8
TEXTE_MOYEN
 10
-34.2785138106316865
 20
7.1017198023089341
 30
0.0
 40
2.5
  1

  3
C
  2
C
 70
     0
1001
ACDBBLOCKREPETAG
1070
     1
1071
       69
1005
0
1001
AcDbAttr
1070
     0
1070
     1
  0
ATTDEF
  5
B6A0
  8
TEXTE_MOYEN
 10
-175.3614274216683953
 20
31.3106297519419705
 30
0.0
 40
2.5
  1

  3
Dess indC
  2
DessC
 70
     0
1001
ACDBBLOCKREPETAG
1070
     1
1071
       70
1005
0
1001
AcDbAttr
1070
     0
1070
     1
  0
ATTDEF
  5
B6A1
  8
TEXTE_MOYEN
 10
-163.3614274216683953
 20
31.3106297519419705
 30
0.0
 40
2.5
  1

  3
Cont indC
  2
CONTC
 70
     0
1001
ACDBBLOCKREPETAG
1070
     1
1071
       71
1005
0
1001
AcDbAttr
1070
     0
1070
     1
  0
ATTDEF
  5
B6A2
  8
TEXTE_MOYEN
 10
-150.5790099644038094
 20
31.3106297519419705
 30
0.0
 40
2.5
  1

  3
C_modif :
  2
C_MODIF
 70
     0
1001
ACDBBLOCKREPETAG
1070
     1
1071
       72
1005
0
1001
AcDbAttr
1070
     0
1070
     1
  0
ATTDEF
  5
B6A3
  8
TEXTE_MOYEN
 10
-69.1858220024612365
 20
31.2390902067880916
 30
0.0
 40
2.5
  1

  3
C_date :
  2
C_DATE
 70
     0
1001
ACDBBLOCKREPETAG
1070
     1
1071
       73
1005
0
1001
AcDbAttr
1070
     0
1070
     1
  0
ATTDEF
  5
B6A4
  8
TEXTE_MOYEN
 10
-182.4901240226948005
 20
31.3106297519419705
 30
0.0
 40
2.5
  1

  3
indC
  2
C
 70
     0
1001
ACDBBLOCKREPETAG
1070
     1
1071
       74
1005
0
1001
AcDbAttr
1070
     0
1070
     1
  0
ATTDEF
  5
B6A5
  8
TEXTE_MOYEN
 10
-28.02851381063169
 20
7.1017198023089341
 30
0.0
 40
2.5
  1

  3
D
  2
D
 70
     0
1001
ACDBBLOCKREPETAG
1070
     1
1071
       75
1005
0
1001
AcDbAttr
1070
     0
1070
     1
  0
ATTDEF
  5
B6A6
  8
TEXTE_MOYEN
 10
-175.3614274216683953
 20
36.310629751941967
 30
0.0
 40
2.5
  1

  3
Dess indD
  2
DessD
 70
     0
1001
ACDBBLOCKREPETAG
1070
     1
1071
       76
1005
0
1001
AcDbAttr
1070
     0
1070
     1
  0
ATTDEF
  5
B6A7
  8
TEXTE_MOYEN
 10
-163.3614274216683953
 20
36.310629751941967
 30
0.0
 40
2.5
  1

  3
Cont indD
  2
CONTD
 70
     0
1001
ACDBBLOCKREPETAG
1070
     1
1071
       77
1005
0
1001
AcDbAttr
1070
     0
1070
     1
  0
ATTDEF
  5
B6A8
  8
TEXTE_MOYEN
 10
-150.5790099644038094
 20
36.310629751941967
 30
0.0
 40
2.5
  1

  3
D_modif :
  2
D_MODIF
 70
     0
1001
ACDBBLOCKREPETAG
1070
     1
1071
       78
1005
0
1001
AcDbAttr
1070
     0
1070
     1
  0
ATTDEF
  5
B6A9
  8
TEXTE_MOYEN
 10
-69.1858220024612365
 20
36.2390902067880916
 30
0.0
 40
2.5
  1

  3
D_date :
  2
D_DATE
 70
     0
1001
ACDBBLOCKREPETAG
1070
     1
1071
       79
1005
0
1001
AcDbAttr
1070
     0
1070
     1
  0
ATTDEF
  5
B6AA
  8
TEXTE_MOYEN
 10
-182.4901240226948005
 20
36.310629751941967
 30
0.0
 40
2.5
  1

  3
indD
  2
D
 70
     0
1001
ACDBBLOCKREPETAG
1070
     1
1071
       80
1005
0
1001
AcDbAttr
1070
     0
1070
     1
  0
ATTDEF
  5
B6AB
  8
TEXTE_MOYEN
 10
-21.77851381063169
 20
7.1017198023089341
 30
0.0
 40
2.5
  1

  3
E
  2
E
 70
     0
1001
ACDBBLOCKREPETAG
1070
     1
1071
       81
1005
0
1001
AcDbAttr
1070
     0
1070
     1
  0
ATTDEF
  5
B6AC
  8
TEXTE_MOYEN
 10
-175.3614274216683953
 20
41.3106297519419599
 30
0.0
 40
2.5
  1

  3
Dess indE
  2
DessE
 70
     0
1001
ACDBBLOCKREPETAG
1070
     1
1071
       82
1005
0
1001
AcDbAttr
1070
     0
1070
     1
  0
TEXT
  5
B6AD
  8
TEXTE_FIN
 10
-164.5241473325951063
 20
9.0
 30
0.0
 40
2.0
  1
Validé par
 41
0.9
1001
ACDBBLOCKREPETAG
1070
     1
1071
       83
1005
B6AD
  0
LINE
  5
B6AE
  8
TRAIT_FORT
 10
-153.0
 20
5.0
 30
0.0
 11
-153.0
 21
45.0
 31
0.0
1001
ACDBBLOCKREPETAG
1070
     1
1071
       84
1005
B6AE
  0
ATTDEF
  5
B6AF
  8
TEXTE_MOYEN
 10
-163.3614274216683953
 20
41.3106297519419599
 30
0.0
 40
2.5
  1

  3
Cont indE
  2
CONTE
 70
     0
1001
ACDBBLOCKREPETAG
1070
     1
1071
       85
1005
0
1001
AcDbAttr
1070
     0
1070
     1
  0
ATTDEF
  5
B6B0
  8
TEXTE_MOYEN
 10
-150.5790099644038094
 20
41.3106297519419599
 30
0.0
 40
2.5
  1

  3
E_modif :
  2
E_MODIF
 70
     0
1001
ACDBBLOCKREPETAG
1070
     1
1071
       86
1005
0
1001
AcDbAttr
1070
     0
1070
     1
  0
ATTDEF
  5
B6B1
  8
TEXTE_MOYEN
 10
-69.1858220024612365
 20
41.2390902067880916
 30
0.0
 40
2.5
  1

  3
E_date :
  2
E_DATE
 70
     0
1001
ACDBBLOCKREPETAG
1070
     1
1071
       87
1005
0
1001
AcDbAttr
1070
     0
1070
     1
  0
ATTDEF
  5
B6B2
  8
TEXTE_MOYEN
 10
-182.4901240226948005
 20
41.3106297519419599
 30
0.0
 40
2.5
  1

  3
indE
  2
E
 70
     0
1001
ACDBBLOCKREPETAG
1070
     1
1071
       88
1005
0
1001
AcDbAttr
1070
     0
1070
     1
  0
ATTDEF
  5
B6B3
  8
TEXTE_MOYEN
 10
-15.5285138106314609
 20
7.1017198023089341
 30
0.0
 40
2.5
  1

  3
F
  2
F
 70
     0
1001
ACDBBLOCKREPETAG
1070
     1
1071
       89
1005
0
1001
AcDbAttr
1070
     0
1070
     1
  0
ATTDEF
  5
B6B4
  8
TEXTE_MOYEN
 10
-9.2785138106316936
 20
7.1017198023089341
 30
0.0
 40
2.5
  1

  3
G
  2
G
 70
     0
1001
ACDBBLOCKREPETAG
1070
     1
1071
       90
1005
0
1001
AcDbAttr
1070
     0
1070
     1
  0
TEXT
  5
B6B5
  8
TRAIT_FORT
 10
-93.3409086738511178
 20
46.5160111678504435
 30
0.0
 40
2.0
  1
dtsystemes@orange.fr
  7
NR
1001
ACDBBLOCKREPETAG
1070
     1
1071
       91
1005
B6B5
  0
TEXT
  5
B6B6
  8
TRAIT_FORT
 10
-141.5689209463342877
 20
47.2454099209543799
 30
0.0
 40
2.5
  1
Soudure Acier/Alu/Inox
  7
NR
1001
ACDBBLOCKREPETAG
1070
     1
1071
       92
1005
B6B6
  0
TEXT
  5
B6B7
  8
TRAIT_FORT
 10
-141.9611845979727889
 20
53.1430743084239694
 30
0.0
 40
2.5
  1
Maintenance Industrielle
  7
NR
1001
ACDBBLOCKREPETAG
1070
     1
1071
       93
1005
B6B7
  0
TEXT
  5
B6B8
  8
TRAIT_FORT
 10
-134.8611847934965908
 20
59.2909869054696586
 30
0.0
 40
2.5
  1
Chaudronnerie
  7
NR
1001
ACDBBLOCKREPETAG
1070
     1
1071
       94
1005
B6B8
  0
TEXT
  5
B6B9
  8
TRAIT_FORT
 10
-92.4281257492358463
 20
49.8578902547710001
 30
0.0
 40
2.0
  1
Fax:02-31-96-78-04
  7
NR
1001
ACDBBLOCKREPETAG
1070
     1
1071
       95
1005
B6B9
  0
TEXT
  5
B6BA
  8
TRAIT_FORT
 10
-91.9767321965158544
 20
52.8688953948185869
 30
0.0
 40
2.0
  1
Tél:02-28-23-23-24
  7
NR
1001
ACDBBLOCKREPETAG
1070
     1
1071
       96
1005
B6BA
  0
TEXT
  5
B6BB
  8
TRAIT_FORT
 10
-98.9615457388814121
 20
56.55540480522059
 30
0.0
 40
2.2000000000000002
  1
44980 Sainte Luce sur Loire
  7
NR
1001
ACDBBLOCKREPETAG
1070
     1
1071
       97
1005
B6BB
  0
TEXT
  5
B6BC
  8
TRAIT_FORT
 10
-95.8558456955084921
 20
60.7140743373204828
 30
0.0
 40
2.2000000000000002
  1
12 Rue LOUIS  LUMIERE
  7
NR
1001
ACDBBLOCKREPETAG
1070
     1
1071
       98
1005
B6BC
  0
ATTDEF
  5
B6BD
  8
TITRE__ISO_
 10
167.3415729543557973
 20
89.4228073204623541
 30
0.0
 40
3.4999999403953548
  1

 41
0.9500000000000454
  7
TEXTE_DE_NOTE__ISO_
 11
167.3415729543557973
 21
92.9228072608576952
 31
0.0
  3
Echelle
  2

 70
     0
 74
     3
1001
ACDBBLOCKREPETAG
1070
     1
1071
       99
1005
0
  0
TEXT
  5
B6BF
  8
TRAIT_FORT
 10
-203.4004269791805939
 20
50.1991425707752796
 30
0.0
 40
2.2000000000000002
  1
Solutions Innovantes pour vos Installations
  7
NR
1001
ACDBBLOCKREPETAG
1070
     1
1071
      100
1005
B6BF
  0
TEXT
  5
B6C0
  8
TITRE__ISO_
 62
     5
 10
-180.6385068629074055
 20
57.1111846578935101
 30
0.0
 40
4.0
  1
DT SYSTEMES
 41
0.9499999999999317
  7
TEXTE_DE_NOTE__ISO_
1001
ACDBBLOCKREPETAG
1070
     1
1071
      101
1005
B6C0
  0
INSERT
  5
B6C1
  8
0
  6
CONTINUOUS
 62
     3
  2
*U20
 10
0.0
 20
0.0
 30
0.0
1001
ACDBBLOCKREPETAG
1070
     1
1071
      102
1005
B6C1
1001
ACAD
1002
{
1000
R14_HATCH_DATA
1000
B6C1
1011
1.0
1021
0.0
1031
0.0
1021
0.0
1031
0.0
1011
0.0
1021
0.0
1031
0.0
1021
1.0
1031
0.0
1011
0.0
1021
0.0
1031
0.0
1021
0.0
1031
1.0
1040
0.0
1010
0.0
1020
0.0
1030
1.0
1000
SOLID
1070
     1
1070
     0
1071
        6
1071
       23
1070
     0
1070
     1
1071
        4
1040
-201.5989094498517034
1040
57.931758992777219
1040
-200.7175210539882073
1040
58.3624439428380768
1040
-200.7175210539882073
1040
60.422528403548192
1040
-201.5989094498517034
1040
60.422528403548192
1071
        0
1071
       23
1070
     0
1070
     1
1071
        4
1040
-200.1708482906360018
1040
58.629572183791737
1040
-199.2894598947723921
1040
59.060257133852609
1040
-199.2894598947723921
1040
60.4225284035481565
1040
-200.1708482906360018
1040
60.422528403548192
1071
        0
1071
        7
1070
     0
1070
     1
1071
        4
1040
-201.5989094498517034
1040
56.3770590113874377
1040
-188.4070937652516875
1040
62.823157582685397
1040
-188.4070937652516875
1040
63.8639234559539304
1040
-201.5989094498517034
1040
57.4178248846559711
1071
        0
1071
        7
1070
     0
1070
     1
1071
        4
1040
-190.115803169493887
1040
60.6689310668488133
1040
-183.435559720121887
1040
57.5547491183636879
1040
-183.4355597201218018
1040
58.4163805833514118
1040
-190.115803169493887
1040
61.493635561987773
1071
        0
1071
        7
1070
     0
1070
     1
1071
        4
1040
-190.1158031694938018
1040
59.3199234508999425
1040
-183.435559720121887
1040
56.2057415024148028
1040
-183.4355597201218018
1040
57.0673729674025694
1040
-190.115803169493887
1040
60.1446279460389235
1071
        0
1071
        7
1070
     0
1070
     1
1071
        4
1040
-190.115803169493887
1040
57.9709158349511071
1040
-183.435559720121887
1040
54.8567338864659675
1040
-183.435559720121887
1040
55.7183653514537411
1040
-190.1158031694938018
1040
58.795620330090081
1071
        0
1070
     0
1070
     1
1040
0.108150377367037
1071
        6
1040
-1372.0567917112889518
1040
5.1867246419836226
1040
0.0
1040
-1370.6631439789200613
1040
5.2472886339252858
1040
0.0
1040
-1369.9966166308579432
1040
3.9754403675491399
1040
0.0
1040
-1355.6359850914309391
1040
4.8839034994483219
1040
0.0
1040
-1356.8478527277229659
1040
3.9754403675491399
1040
0.0
1040
-1357.2114129198760111
1040
2.7641560931146572
1040
0.0
1002
}
  0
LINE
  5
B6C2
  8
0
 62
     3
 10
-201.5989094498517034
 20
57.931758992777219
 30
0.0
 11
-201.5989094498517034
 21
60.422528403548192
 31
0.0
1001
ACDBBLOCKREPETAG
1070
     1
1071
      103
1005
B6C2
  0
LINE
  5
B6C3
  8
0
 62
     3
 10
-201.5989094498517034
 20
60.422528403548192
 30
0.0
 11
-200.7175210539882073
 21
60.422528403548192
 31
0.0
1001
ACDBBLOCKREPETAG
1070
     1
1071
      104
1005
B6C3
  0
LINE
  5
B6C4
  8
0
 62
     3
 10
-200.7175210539882073
 20
60.422528403548192
 30
0.0
 11
-200.7175210539882073
 21
58.362443942838091
 31
0.0
1001
ACDBBLOCKREPETAG
1070
     1
1071
      105
1005
B6C4
  0
LINE
  5
B6C5
  8
0
 62
     3
 10
-200.1708482906360018
 20
60.422528403548192
 30
0.0
 11
-200.1708482906360018
 21
58.629572183791737
 31
0.0
1001
ACDBBLOCKREPETAG
1070
     1
1071
      106
1005
B6C5
  0
LINE
  5
B6C6
  8
0
 62
     3
 10
-201.5989094498517034
 20
56.3770590113874377
 30
0.0
 11
-188.4070937652516875
 21
62.823157582685397
 31
0.0
1001
ACDBBLOCKREPETAG
1070
     1
1071
      107
1005
B6C6
  0
LINE
  5
B6C7
  8
0
 62
     3
 10
-190.115803169493887
 20
60.1446279460389235
 30
0.0
 11
-183.435559720121887
 21
57.0673729674025694
 31
0.0
1001
ACDBBLOCKREPETAG
1070
     1
1071
      108
1005
B6C7
  0
LINE
  5
B6C8
  8
0
 62
     3
 10
-183.435559720121887
 20
57.0673729674025694
 30
0.0
 11
-183.435559720121887
 21
56.2057415024148028
 31
0.0
1001
ACDBBLOCKREPETAG
1070
     1
1071
      109
1005
B6C8
  0
LINE
  5
B6C9
  8
0
 62
     3
 10
-183.435559720121887
 20
56.2057415024148028
 30
0.0
 11
-190.115803169493887
 21
59.3199234508999425
 31
0.0
1001
ACDBBLOCKREPETAG
1070
     1
1071
      110
1005
B6C9
  0
LINE
  5
B6CA
  8
0
 62
     3
 10
-190.115803169493887
 20
59.3199234508999425
 30
0.0
 11
-190.115803169493887
 21
60.1446279460389235
 31
0.0
1001
ACDBBLOCKREPETAG
1070
     1
1071
      111
1005
B6CA
  0
LINE
  5
B6CB
  8
0
 62
     3
 10
-190.115803169493887
 20
58.795620330090081
 30
0.0
 11
-183.435559720121887
 21
55.7183653514537127
 31
0.0
1001
ACDBBLOCKREPETAG
1070
     1
1071
      112
1005
B6CB
  0
LINE
  5
B6CC
  8
0
 62
     3
 10
-183.435559720121887
 20
55.7183653514537127
 30
0.0
 11
-183.435559720121887
 21
54.8567338864659675
 31
0.0
1001
ACDBBLOCKREPETAG
1070
     1
1071
      113
1005
B6CC
  0
LINE
  5
B6CD
  8
0
 62
     3
 10
-183.435559720121887
 20
54.8567338864659675
 30
0.0
 11
-190.115803169493887
 21
57.9709158349511
 31
0.0
1001
ACDBBLOCKREPETAG
1070
     1
1071
      114
1005
B6CD
  0
LINE
  5
B6CE
  8
0
 62
     3
 10
-190.115803169493887
 20
57.9709158349511
 30
0.0
 11
-190.115803169493887
 21
58.795620330090081
 31
0.0
1001
ACDBBLOCKREPETAG
1070
     1
1071
      115
1005
B6CE
  0
LINE
  5
B6CF
  8
0
 62
     3
 10
-200.1708482906360018
 20
60.422528403548192
 30
0.0
 11
-199.2894598947723921
 21
60.4225284035481707
 31
0.0
1001
ACDBBLOCKREPETAG
1070
     1
1071
      116
1005
B6CF
  0
LINE
  5
B6D0
  8
0
 62
     3
 10
-201.5989094498517034
 20
57.4178248846559711
 30
0.0
 11
-188.4070937652516875
 21
63.8639234559539304
 31
0.0
1001
ACDBBLOCKREPETAG
1070
     1
1071
      117
1005
B6D0
  0
LINE
  5
B6D1
  8
0
 62
     3
 10
-201.5989094498517034
 20
57.4178248846559711
 30
0.0
 11
-201.5989094498517034
 21
56.3770590113874093
 31
0.0
1001
ACDBBLOCKREPETAG
1070
     1
1071
      118
1005
B6D1
  0
LINE
  5
B6D2
  8
0
 62
     3
 10
-201.5989094498517034
 20
57.9317589927771976
 30
0.0
 11
-200.7175210539882073
 21
58.3624439428380697
 31
0.0
1001
ACDBBLOCKREPETAG
1070
     1
1071
      119
1005
B6D2
  0
LINE
  5
B6D3
  8
0
 62
     3
 10
-200.1708482906360018
 20
58.629572183791737
 30
0.0
 11
-199.2894598947723921
 21
59.060257133852609
 31
0.0
1001
ACDBBLOCKREPETAG
1070
     1
1071
      120
1005
B6D3
  0
LINE
  5
B6D4
  8
0
 62
     3
 10
-199.2894598947723921
 20
60.422528403548192
 30
0.0
 11
-199.2894598947723921
 21
59.060257133852609
 31
0.0
1001
ACDBBLOCKREPETAG
1070
     1
1071
      121
1005
B6D4
  0
LINE
  5
B6D5
  8
0
 62
     3
 10
-190.115803169493887
 20
61.4936355619877801
 30
0.0
 11
-183.435559720121887
 21
58.4163805833514118
 31
0.0
1001
ACDBBLOCKREPETAG
1070
     1
1071
      122
1005
B6D5
  0
LINE
  5
B6D6
  8
0
 62
     3
 10
-183.435559720121887
 20
58.4163805833514118
 30
0.0
 11
-183.435559720121887
 21
57.5547491183636666
 31
0.0
1001
ACDBBLOCKREPETAG
1070
     1
1071
      123
1005
B6D6
  0
LINE
  5
B6D7
  8
0
 62
     3
 10
-183.435559720121887
 20
57.5547491183636666
 30
0.0
 11
-190.115803169493887
 21
60.668931066848792
 31
0.0
1001
ACDBBLOCKREPETAG
1070
     1
1071
      124
1005
B6D7
  0
LINE
  5
B6D8
  8
0
 62
     3
 10
-190.115803169493887
 20
60.668931066848792
 30
0.0
 11
-190.115803169493887
 21
61.4936355619877801
 31
0.0
1001
ACDBBLOCKREPETAG
1070
     1
1071
      125
1005
B6D8
  0
ENDBLK
  5
8B49
  8
0
  0
BLOCK
  8
0
  2
_OBLIQUE
 70
     0
 10
0.0
 20
0.0
 30
0.0
  3
_OBLIQUE
  1

  0
LINE
  5
BD0B
  8
0
  6
BYBLOCK
 62
     0
 10
-0.5
 20
-0.5
 30
0.0
 11
0.5
 21
0.5
 31
0.0
  0
ENDBLK
  5
BD0C
  8
0
  0
BLOCK
  8
0
  2
*U19
 70
     1
 10
0.0
 20
0.0
 30
0.0
  3
*U19
  1

  0
TEXT
  5
C32E
  8
TEXTE_FIN
 10
-199.502499999999003
 20
98.9084327650307387
 30
0.0
 40
1.5
  1
REPRODUCTION INTERDITE : Ce document est la propriété de DT SYSTEMES Son usage ne confère aucun droit de reproduction, représentation ou communication à des tiers sans notre autorisation préalable.
  0
ENDBLK
  5
C330
  8
0
  0
BLOCK
  8
0
  2
*U20
 70
     1
 10
0.0
 20
0.0
 30
0.0
  3
*U20
  1

  0
SOLID
  5
C332
  8
0
  6
CONTINUOUS
 62
     3
 10
188.4070937652516875
 20
63.8639234559539304
 30
0.0
 11
188.4070937652516875
 21
62.823157582685397
 31
0.0
 12
190.53700093609649
 22
62.823157582685397
 32
0.0
 13
190.53700093609649
 23
62.823157582685397
 33
0.0
210
0.0
220
0.0
230
-1.0
  0
SOLID
  5
C333
  8
0
  6
CONTINUOUS
 62
     3
 10
190.115803169493887
 20
61.493635561987773
 30
0.0
 11
188.3254975758505054
 21
60.6689310668488133
 31
0.0
 12
190.115803169493887
 22
60.6689310668488133
 32
0.0
 13
190.115803169493887
 23
60.6689310668488133
 33
0.0
210
0.0
220
0.0
230
-1.0
  0
SOLID
  5
C334
  8
0
  6
CONTINUOUS
 62
     3
 10
190.115803169493887
 20
60.1446279460389235
 30
0.0
 11
188.3254975758503917
 21
59.3199234508999425
 31
0.0
 12
190.1158031694938018
 22
59.3199234508999425
 32
0.0
 13
190.1158031694938018
 23
59.3199234508999425
 33
0.0
210
0.0
220
0.0
230
-1.0
  0
SOLID
  5
C335
  8
0
  6
CONTINUOUS
 62
     3
 10
200.1708482906360018
 20
60.4225284035481565
 30
0.0
 11
199.2894598947723921
 21
59.060257133852609
 31
0.0
 12
200.1708482906360018
 22
59.060257133852609
 32
0.0
 13
200.1708482906360018
 23
59.060257133852609
 33
0.0
210
0.0
220
0.0
230
-1.0
  0
SOLID
  5
C336
  8
0
  6
CONTINUOUS
 62
     3
 10
200.1708482906360018
 20
60.4225284035481565
 30
0.0
 11
199.2894598947723921
 21
60.4225284035481565
 31
0.0
 12
199.2894598947723921
 22
59.060257133852609
 32
0.0
 13
199.2894598947723921
 23
59.060257133852609
 33
0.0
210
0.0
220
0.0
230
-1.0
  0
SOLID
  5
C337
  8
0
  6
CONTINUOUS
 62
     3
 10
200.1708482906360018
 20
58.795620330090081
 30
0.0
 11
199.831033980241898
 21
58.795620330090081
 31
0.0
 12
200.1708482906360018
 22
58.629572183791737
 32
0.0
 13
200.1708482906360018
 23
58.629572183791737
 33
0.0
210
0.0
220
0.0
230
-1.0
  0
SOLID
  5
C338
  8
0
  6
CONTINUOUS
 62
     3
 10
190.1158031694938018
 20
58.795620330090081
 30
0.0
 11
189.7553383886126142
 21
58.629572183791737
 31
0.0
 12
190.115803169493887
 22
58.629572183791737
 32
0.0
 13
190.115803169493887
 23
58.629572183791737
 33
0.0
210
0.0
220
0.0
230
-1.0
  0
SOLID
  5
C339
  8
0
  6
CONTINUOUS
 62
     3
 10
200.1708482906360018
 20
59.060257133852609
 30
0.0
 11
199.831033980241898
 21
58.795620330090081
 31
0.0
 12
200.1708482906360018
 22
58.795620330090081
 32
0.0
 13
200.1708482906360018
 23
58.795620330090081
 33
0.0
210
0.0
220
0.0
230
-1.0
  0
SOLID
  5
C33A
  8
0
  6
CONTINUOUS
 62
     3
 10
200.1708482906360018
 20
59.060257133852609
 30
0.0
 11
199.2894598947723921
 21
59.060257133852609
 31
0.0
 12
199.831033980241898
 22
58.795620330090081
 32
0.0
 13
199.831033980241898
 23
58.795620330090081
 33
0.0
210
0.0
220
0.0
230
-1.0
  0
SOLID
  5
C33B
  8
0
  6
CONTINUOUS
 62
     3
 10
190.115803169493887
 20
60.6689310668488133
 30
0.0
 11
183.4355597201218018
 21
58.4163805833514118
 31
0.0
 12
185.2838486271193972
 22
58.4163805833514118
 32
0.0
 13
185.2838486271193972
 23
58.4163805833514118
 33
0.0
210
0.0
220
0.0
230
-1.0
  0
SOLID
  5
C33C
  8
0
  6
CONTINUOUS
 62
     3
 10
190.115803169493887
 20
60.6689310668488133
 30
0.0
 11
188.3254975758505054
 21
60.6689310668488133
 31
0.0
 12
183.4355597201218018
 22
58.4163805833514118
 32
0.0
 13
183.4355597201218018
 23
58.4163805833514118
 33
0.0
210
0.0
220
0.0
230
-1.0
  0
SOLID
  5
C33D
  8
0
  6
CONTINUOUS
 62
     3
 10
201.5989094498517034
 20
60.4225284035481565
 30
0.0
 11
200.7175210539882073
 21
58.3624439428380768
 31
0.0
 12
201.5989094498517034
 22
58.3624439428380768
 32
0.0
 13
201.5989094498517034
 23
58.3624439428380768
 33
0.0
210
0.0
220
0.0
230
-1.0
  0
SOLID
  5
C33E
  8
0
  6
CONTINUOUS
 62
     3
 10
201.5989094498517034
 20
60.4225284035481565
 30
0.0
 11
200.7175210539882073
 21
60.4225284035481565
 31
0.0
 12
200.7175210539882073
 22
58.3624439428380768
 32
0.0
 13
200.7175210539882073
 23
58.3624439428380768
 33
0.0
210
0.0
220
0.0
230
-1.0
  0
SOLID
  5
C33F
  8
0
  6
CONTINUOUS
 62
     3
 10
201.5989094498517034
 20
57.9709158349511071
 30
0.0
 11
201.5187757319081072
 21
57.9709158349511071
 31
0.0
 12
201.5989094498517034
 22
57.931758992777219
 32
0.0
 13
201.5989094498517034
 23
57.931758992777219
 33
0.0
210
0.0
220
0.0
230
-1.0
  0
SOLID
  5
C340
  8
0
  6
CONTINUOUS
 62
     3
 10
190.115803169493887
 20
58.629572183791737
 30
0.0
 11
188.3254975758503917
 21
57.9709158349511071
 31
0.0
 12
190.115803169493887
 22
57.9709158349511071
 32
0.0
 13
190.115803169493887
 23
57.9709158349511071
 33
0.0
210
0.0
220
0.0
230
-1.0
  0
SOLID
  5
C341
  8
0
  6
CONTINUOUS
 62
     3
 10
190.115803169493887
 20
58.629572183791737
 30
0.0
 11
189.7553383886126142
 21
58.629572183791737
 31
0.0
 12
188.3254975758503917
 22
57.9709158349511071
 32
0.0
 13
188.3254975758503917
 23
57.9709158349511071
 33
0.0
210
0.0
220
0.0
230
-1.0
  0
SOLID
  5
C342
  8
0
  6
CONTINUOUS
 62
     3
 10
201.5989094498517034
 20
58.3624439428380768
 30
0.0
 11
201.5187757319081072
 21
57.9709158349511071
 31
0.0
 12
201.5989094498517034
 22
57.9709158349511071
 32
0.0
 13
201.5989094498517034
 23
57.9709158349511071
 33
0.0
210
0.0
220
0.0
230
-1.0
  0
SOLID
  5
C343
  8
0
  6
CONTINUOUS
 62
     3
 10
201.5989094498517034
 20
58.3624439428380768
 30
0.0
 11
200.7175210539882073
 21
58.3624439428380768
 31
0.0
 12
201.5187757319081072
 22
57.9709158349511071
 32
0.0
 13
201.5187757319081072
 23
57.9709158349511071
 33
0.0
210
0.0
220
0.0
230
-1.0
  0
SOLID
  5
C344
  8
0
  6
CONTINUOUS
 62
     3
 10
184.2442850244106864
 20
57.931758992777219
 30
0.0
 11
183.435559720121887
 21
57.931758992777219
 31
0.0
 12
183.435559720121887
 22
57.5547491183636879
 32
0.0
 13
183.435559720121887
 23
57.5547491183636879
 33
0.0
210
0.0
220
0.0
230
-1.0
  0
SOLID
  5
C345
  8
0
  6
CONTINUOUS
 62
     3
 10
185.2838486271193972
 20
58.4163805833514118
 30
0.0
 11
183.435559720121887
 21
57.931758992777219
 31
0.0
 12
184.2442850244106864
 22
57.931758992777219
 32
0.0
 13
184.2442850244106864
 23
57.931758992777219
 33
0.0
210
0.0
220
0.0
230
-1.0
  0
SOLID
  5
C346
  8
0
  6
CONTINUOUS
 62
     3
 10
185.2838486271193972
 20
58.4163805833514118
 30
0.0
 11
183.4355597201218018
 21
58.4163805833514118
 31
0.0
 12
183.435559720121887
 22
57.931758992777219
 32
0.0
 13
183.435559720121887
 23
57.931758992777219
 33
0.0
210
0.0
220
0.0
230
-1.0
  0
SOLID
  5
C347
  8
0
  6
CONTINUOUS
 62
     3
 10
190.53700093609649
 20
62.823157582685397
 30
0.0
 11
199.4690022790069008
 21
57.4178248846559711
 31
0.0
 12
201.5989094498517034
 22
57.4178248846559711
 32
0.0
 13
201.5989094498517034
 23
57.4178248846559711
 33
0.0
210
0.0
220
0.0
230
-1.0
  0
SOLID
  5
C348
  8
0
  6
CONTINUOUS
 62
     3
 10
190.53700093609649
 20
62.823157582685397
 30
0.0
 11
188.4070937652516875
 21
62.823157582685397
 31
0.0
 12
199.4690022790069008
 22
57.4178248846559711
 32
0.0
 13
199.4690022790069008
 23
57.4178248846559711
 33
0.0
210
0.0
220
0.0
230
-1.0
  0
SOLID
  5
C349
  8
0
  6
CONTINUOUS
 62
     3
 10
201.5989094498517034
 20
57.0673729674025694
 30
0.0
 11
200.1861953295920102
 21
57.0673729674025694
 31
0.0
 12
201.5989094498517034
 22
56.3770590113874377
 32
0.0
 13
201.5989094498517034
 23
56.3770590113874377
 33
0.0
210
0.0
220
0.0
230
-1.0
  0
SOLID
  5
C34A
  8
0
  6
CONTINUOUS
 62
     3
 10
190.1158031694938018
 20
59.3199234508999425
 30
0.0
 11
183.4355597201218018
 21
57.0673729674025694
 31
0.0
 12
185.2838486271195109
 22
57.0673729674025694
 32
0.0
 13
185.2838486271195109
 23
57.0673729674025694
 33
0.0
210
0.0
220
0.0
230
-1.0
  0
SOLID
  5
C34B
  8
0
  6
CONTINUOUS
 62
     3
 10
190.1158031694938018
 20
59.3199234508999425
 30
0.0
 11
188.3254975758503917
 21
59.3199234508999425
 31
0.0
 12
183.4355597201218018
 22
57.0673729674025694
 32
0.0
 13
183.4355597201218018
 23
57.0673729674025694
 33
0.0
210
0.0
220
0.0
230
-1.0
  0
SOLID
  5
C34C
  8
0
  6
CONTINUOUS
 62
     3
 10
201.5989094498517034
 20
57.4178248846559711
 30
0.0
 11
200.1861953295920102
 21
57.0673729674025694
 31
0.0
 12
201.5989094498517034
 22
57.0673729674025694
 32
0.0
 13
201.5989094498517034
 23
57.0673729674025694
 33
0.0
210
0.0
220
0.0
230
-1.0
  0
SOLID
  5
C34D
  8
0
  6
CONTINUOUS
 62
     3
 10
201.5989094498517034
 20
57.4178248846559711
 30
0.0
 11
199.4690022790069008
 21
57.4178248846559711
 31
0.0
 12
200.1861953295920102
 22
57.0673729674025694
 32
0.0
 13
200.1861953295920102
 23
57.0673729674025694
 33
0.0
210
0.0
220
0.0
230
-1.0
  0
SOLID
  5
C34E
  8
0
  6
CONTINUOUS
 62
     3
 10
183.8030535551027924
 20
56.3770590113874377
 30
0.0
 11
183.435559720121887
 21
56.3770590113874377
 31
0.0
 12
183.435559720121887
 22
56.2057415024148028
 32
0.0
 13
183.435559720121887
 23
56.2057415024148028
 33
0.0
210
0.0
220
0.0
230
-1.0
  0
SOLID
  5
C34F
  8
0
  6
CONTINUOUS
 62
     3
 10
185.2838486271195109
 20
57.0673729674025694
 30
0.0
 11
183.435559720121887
 21
56.3770590113874377
 31
0.0
 12
183.8030535551027924
 22
56.3770590113874377
 32
0.0
 13
183.8030535551027924
 23
56.3770590113874377
 33
0.0
210
0.0
220
0.0
230
-1.0
  0
SOLID
  5
C350
  8
0
  6
CONTINUOUS
 62
     3
 10
185.2838486271195109
 20
57.0673729674025694
 30
0.0
 11
183.4355597201218018
 21
57.0673729674025694
 31
0.0
 12
183.435559720121887
 22
56.3770590113874377
 32
0.0
 13
183.435559720121887
 23
56.3770590113874377
 33
0.0
210
0.0
220
0.0
230
-1.0
  0
SOLID
  5
C351
  8
0
  6
CONTINUOUS
 62
     3
 10
185.2838486271195109
 20
55.7183653514537411
 30
0.0
 11
183.435559720121887
 21
55.7183653514537411
 31
0.0
 12
183.435559720121887
 22
54.8567338864659675
 32
0.0
 13
183.435559720121887
 23
54.8567338864659675
 33
0.0
210
0.0
220
0.0
230
-1.0
  0
SOLID
  5
C352
  8
0
  6
CONTINUOUS
 62
     3
 10
190.115803169493887
 20
57.9709158349511071
 30
0.0
 11
183.435559720121887
 21
55.7183653514537411
 31
0.0
 12
185.2838486271195109
 22
55.7183653514537411
 32
0.0
 13
185.2838486271195109
 23
55.7183653514537411
 33
0.0
210
0.0
220
0.0
230
-1.0
  0
SOLID
  5
C353
  8
0
  6
CONTINUOUS
 62
     3
 10
190.115803169493887
 20
57.9709158349511071
 30
0.0
 11
188.3254975758503917
 21
57.9709158349511071
 31
0.0
 12
183.435559720121887
 22
55.7183653514537411
 32
0.0
 13
183.435559720121887
 23
55.7183653514537411
 33
0.0
210
0.0
220
0.0
230
-1.0
  0
LINE
  5
C354
  8
0
  6
CONTINUOUS
 62
     3
 10
-188.4070937652516875
 20
63.8639234559539304
 30
0.0
 11
-188.4070937652516875
 21
62.823157582685397
 31
0.0
  0
LINE
  5
C355
  8
0
  6
CONTINUOUS
 62
     3
 10
-190.53700093609649
 20
62.823157582685397
 30
0.0
 11
-188.4070937652516875
 21
63.8639234559539304
 31
0.0
  0
LINE
  5
C356
  8
0
  6
CONTINUOUS
 62
     3
 10
-190.115803169493887
 20
61.493635561987773
 30
0.0
 11
-188.3254975758505054
 21
60.6689310668488133
 31
0.0
  0
LINE
  5
C357
  8
0
  6
CONTINUOUS
 62
     3
 10
-190.115803169493887
 20
60.6689310668488133
 30
0.0
 11
-190.115803169493887
 21
61.493635561987773
 31
0.0
  0
LINE
  5
C358
  8
0
  6
CONTINUOUS
 62
     3
 10
-190.115803169493887
 20
60.1446279460389235
 30
0.0
 11
-188.3254975758503917
 21
59.3199234508999425
 31
0.0
  0
LINE
  5
C359
  8
0
  6
CONTINUOUS
 62
     3
 10
-190.1158031694938018
 20
59.3199234508999425
 30
0.0
 11
-190.115803169493887
 21
60.1446279460389235
 31
0.0
  0
LINE
  5
C35A
  8
0
  6
CONTINUOUS
 62
     3
 10
-200.1708482906360018
 20
59.060257133852609
 30
0.0
 11
-200.1708482906360018
 21
60.4225284035481565
 31
0.0
  0
LINE
  5
C35B
  8
0
  6
CONTINUOUS
 62
     3
 10
-199.2894598947723921
 20
60.4225284035481565
 30
0.0
 11
-199.2894598947723921
 21
59.060257133852609
 31
0.0
  0
LINE
  5
C35C
  8
0
  6
CONTINUOUS
 62
     3
 10
-199.831033980241898
 20
58.795620330090081
 30
0.0
 11
-200.1708482906360018
 21
58.629572183791737
 31
0.0
  0
LINE
  5
C35D
  8
0
  6
CONTINUOUS
 62
     3
 10
-200.1708482906360018
 20
58.629572183791737
 30
0.0
 11
-200.1708482906360018
 21
58.795620330090081
 31
0.0
  0
LINE
  5
C35E
  8
0
  6
CONTINUOUS
 62
     3
 10
-190.1158031694938018
 20
58.795620330090081
 30
0.0
 11
-189.7553383886126142
 21
58.629572183791737
 31
0.0
  0
LINE
  5
C35F
  8
0
  6
CONTINUOUS
 62
     3
 10
-190.115803169493887
 20
58.629572183791737
 30
0.0
 11
-190.1158031694938018
 21
58.795620330090081
 31
0.0
  0
LINE
  5
C360
  8
0
  6
CONTINUOUS
 62
     3
 10
-200.1708482906360018
 20
58.795620330090081
 30
0.0
 11
-200.1708482906360018
 21
59.060257133852609
 31
0.0
  0
LINE
  5
C361
  8
0
  6
CONTINUOUS
 62
     3
 10
-199.2894598947723921
 20
59.060257133852609
 30
0.0
 11
-199.831033980241898
 21
58.795620330090081
 31
0.0
  0
LINE
  5
C362
  8
0
  6
CONTINUOUS
 62
     3
 10
-185.2838486271193972
 20
58.4163805833514118
 30
0.0
 11
-190.115803169493887
 21
60.6689310668488133
 31
0.0
  0
LINE
  5
C363
  8
0
  6
CONTINUOUS
 62
     3
 10
-188.3254975758505054
 20
60.6689310668488133
 30
0.0
 11
-183.4355597201218018
 21
58.4163805833514118
 31
0.0
  0
LINE
  5
C364
  8
0
  6
CONTINUOUS
 62
     3
 10
-201.5989094498517034
 20
58.3624439428380768
 30
0.0
 11
-201.5989094498517034
 21
60.4225284035481565
 31
0.0
  0
LINE
  5
C365
  8
0
  6
CONTINUOUS
 62
     3
 10
-200.7175210539882073
 20
60.4225284035481565
 30
0.0
 11
-200.7175210539882073
 21
58.3624439428380768
 31
0.0
  0
LINE
  5
C366
  8
0
  6
CONTINUOUS
 62
     3
 10
-201.5187757319081072
 20
57.9709158349511071
 30
0.0
 11
-201.5989094498517034
 21
57.931758992777219
 31
0.0
  0
LINE
  5
C367
  8
0
  6
CONTINUOUS
 62
     3
 10
-201.5989094498517034
 20
57.931758992777219
 30
0.0
 11
-201.5989094498517034
 21
57.9709158349511071
 31
0.0
  0
LINE
  5
C368
  8
0
  6
CONTINUOUS
 62
     3
 10
-190.115803169493887
 20
57.9709158349511071
 30
0.0
 11
-190.115803169493887
 21
58.629572183791737
 31
0.0
  0
LINE
  5
C369
  8
0
  6
CONTINUOUS
 62
     3
 10
-189.7553383886126142
 20
58.629572183791737
 30
0.0
 11
-188.3254975758503917
 21
57.9709158349511071
 31
0.0
  0
LINE
  5
C36A
  8
0
  6
CONTINUOUS
 62
     3
 10
-201.5989094498517034
 20
57.9709158349511071
 30
0.0
 11
-201.5989094498517034
 21
58.3624439428380768
 31
0.0
  0
LINE
  5
C36B
  8
0
  6
CONTINUOUS
 62
     3
 10
-200.7175210539882073
 20
58.3624439428380768
 30
0.0
 11
-201.5187757319081072
 21
57.9709158349511071
 31
0.0
  0
LINE
  5
C36C
  8
0
  6
CONTINUOUS
 62
     3
 10
-183.435559720121887
 20
57.931758992777219
 30
0.0
 11
-183.435559720121887
 21
57.5547491183636879
 31
0.0
  0
LINE
  5
C36D
  8
0
  6
CONTINUOUS
 62
     3
 10
-183.435559720121887
 20
57.5547491183636879
 30
0.0
 11
-184.2442850244106864
 21
57.931758992777219
 31
0.0
  0
LINE
  5
C36E
  8
0
  6
CONTINUOUS
 62
     3
 10
-184.2442850244106864
 20
57.931758992777219
 30
0.0
 11
-185.2838486271193972
 21
58.4163805833514118
 31
0.0
  0
LINE
  5
C36F
  8
0
  6
CONTINUOUS
 62
     3
 10
-183.4355597201218018
 20
58.4163805833514118
 30
0.0
 11
-183.435559720121887
 21
57.931758992777219
 31
0.0
  0
LINE
  5
C370
  8
0
  6
CONTINUOUS
 62
     3
 10
-201.5989094498517034
 20
57.4178248846559711
 30
0.0
 11
-190.53700093609649
 21
62.823157582685397
 31
0.0
  0
LINE
  5
C371
  8
0
  6
CONTINUOUS
 62
     3
 10
-188.4070937652516875
 20
62.823157582685397
 30
0.0
 11
-199.4690022790069008
 21
57.4178248846559711
 31
0.0
  0
LINE
  5
C372
  8
0
  6
CONTINUOUS
 62
     3
 10
-200.1861953295920102
 20
57.0673729674025694
 30
0.0
 11
-201.5989094498517034
 21
56.3770590113874377
 31
0.0
  0
LINE
  5
C373
  8
0
  6
CONTINUOUS
 62
     3
 10
-201.5989094498517034
 20
56.3770590113874377
 30
0.0
 11
-201.5989094498517034
 21
57.0673729674025694
 31
0.0
  0
LINE
  5
C374
  8
0
  6
CONTINUOUS
 62
     3
 10
-185.2838486271195109
 20
57.0673729674025694
 30
0.0
 11
-190.1158031694938018
 21
59.3199234508999425
 31
0.0
  0
LINE
  5
C375
  8
0
  6
CONTINUOUS
 62
     3
 10
-188.3254975758503917
 20
59.3199234508999425
 30
0.0
 11
-183.4355597201218018
 21
57.0673729674025694
 31
0.0
  0
LINE
  5
C376
  8
0
  6
CONTINUOUS
 62
     3
 10
-201.5989094498517034
 20
57.0673729674025694
 30
0.0
 11
-201.5989094498517034
 21
57.4178248846559711
 31
0.0
  0
LINE
  5
C377
  8
0
  6
CONTINUOUS
 62
     3
 10
-199.4690022790069008
 20
57.4178248846559711
 30
0.0
 11
-200.1861953295920102
 21
57.0673729674025694
 31
0.0
  0
LINE
  5
C378
  8
0
  6
CONTINUOUS
 62
     3
 10
-183.435559720121887
 20
56.3770590113874377
 30
0.0
 11
-183.435559720121887
 21
56.2057415024148028
 31
0.0
  0
LINE
  5
C379
  8
0
  6
CONTINUOUS
 62
     3
 10
-183.435559720121887
 20
56.2057415024148028
 30
0.0
 11
-183.8030535551027924
 21
56.3770590113874377
 31
0.0
  0
LINE
  5
C37A
  8
0
  6
CONTINUOUS
 62
     3
 10
-183.8030535551027924
 20
56.3770590113874377
 30
0.0
 11
-185.2838486271195109
 21
57.0673729674025694
 31
0.0
  0
LINE
  5
C37B
  8
0
  6
CONTINUOUS
 62
     3
 10
-183.4355597201218018
 20
57.0673729674025694
 30
0.0
 11
-183.435559720121887
 21
56.3770590113874377
 31
0.0
  0
LINE
  5
C37C
  8
0
  6
CONTINUOUS
 62
     3
 10
-183.435559720121887
 20
55.7183653514537411
 30
0.0
 11
-183.435559720121887
 21
54.8567338864659675
 31
0.0
  0
LINE
  5
C37D
  8
0
  6
CONTINUOUS
 62
     3
 10
-183.435559720121887
 20
54.8567338864659675
 30
0.0
 11
-185.2838486271195109
 21
55.7183653514537411
 31
0.0
  0
LINE
  5
C37E
  8
0
  6
CONTINUOUS
 62
     3
 10
-185.2838486271195109
 20
55.7183653514537411
 30
0.0
 11
-190.115803169493887
 21
57.9709158349511071
 31
0.0
  0
LINE
  5
C37F
  8
0
  6
CONTINUOUS
 62
     3
 10
-188.3254975758503917
 20
57.9709158349511071
 30
0.0
 11
-183.435559720121887
 21
55.7183653514537411
 31
0.0
  0
ENDBLK
  5
C381
  8
0
  0
ENDSEC
  0
SECTION
  2
ENTITIES
  0
ARC
  5
BD23
  8
CW
 10
2195.645453954119148
 20
124.4987728865005039
 30
0.0
 40
1.8217686305004821
 50
173.8759284726642136
 51
304.3790833728173197
  0
ARC
  5
BD24
  8
CW
 10
2225.8077855194110271
 20
119.7338790062445071
 30
0.0
 40
32.3560168599663598
 50
156.4773095593895107
 51
171.1834584517878
  0
ARC
  5
BD25
  8
CW
 10
2197.8213819867719394
 20
130.2059341272594963
 30
0.0
 40
2.9642791066888332
 50
55.4551977702315284
 51
124.5448022297756978
  0
ARC
  5
BD26
  8
CW
 10
2196.9879437646800397
 20
129.9588574978554902
 30
0.0
 40
3.6811683199729601
 50
346.1059727200968723
 51
46.9194299384786788
  0
ARC
  5
BD27
  8
CW
 10
2176.6435782917210418
 20
140.0850680325845872
 30
0.0
 40
26.3303264696425607
 50
319.5295902894355891
 51
335.2818398497221892
  0
LINE
  5
BD28
  8
CW
 10
2196.6741442978827763
 20
122.9952313607283969
 30
0.0
 11
2196.6741442978827763
 21
122.9952313607283969
 31
0.0
  0
ARC
  5
BD29
  8
CW
 10
2170.502241130731818
 20
109.289012596854505
 30
0.0
 40
1.3623083965659959
 50
244.6149886675910068
 51
45.6174353279028324
  0
ARC
  5
BD2A
  8
CW
 10
2152.7357647907879254
 20
81.9139976160694232
 30
0.0
 40
31.28511049920753
 50
56.6863767186417107
 51
68.7458829859411082
  0
ARC
  5
BD2B
  8
CW
 10
2168.0121949183608194
 20
129.8394775333005953
 30
0.0
 40
19.1764851537357117
 50
231.4759173602500084
 51
258.157552952426613
  0
ARC
  5
BD2C
  8
CW
 10
2181.4993727450141705
 20
143.6225109235107027
 30
0.0
 40
38.4103903482076703
 50
213.7645547998606901
 51
228.5405520830261139
  0
ARC
  5
BD2D
  8
CW
 10
2154.3077444281311728
 20
125.0050759855756013
 30
0.0
 40
5.4701557201140156
 50
150.0572034495075116
 51
209.9427965504924884
  0
ARC
  5
BD2E
  8
CW
 10
2162.0786921856210938
 20
121.1679194369680062
 30
0.0
 40
14.1299847182003901
 50
139.356024392599295
 51
152.3032406769673912
  0
ARC
  5
BD2F
  8
CW
 10
2153.2417269100751582
 20
128.4898716455288934
 30
0.0
 40
2.663088606714453
 50
44.9580613796553621
 51
135.0419386203446095
  0
ARC
  5
BD30
  8
CW
 10
2252.4506890442380609
 20
192.7170353083421901
 30
0.0
 40
115.5811977449972971
 50
212.6433666510286002
 51
225.5113591540595053
  0
ARC
  5
BD31
  8
CW
 10
3541.5391845563272
 20
267.4865588573650257
 30
0.0
 40
1448.9603761608320838
 50
190.8840829804105965
 51
192.8783393781860127
  0
ARC
  5
BD32
  8
CW
 10
1414.2793123526168984
 20
-138.2296979746193983
 30
0.0
 40
716.6484740175205843
 50
10.6236924481508996
 51
14.4582294394575008
  0
ARC
  5
BD33
  8
CW
 10
2109.4006968690491703
 20
41.181487822362179
 30
0.0
 40
1.2649098983894591
 50
30.6596218958428999
 51
202.4286770732348089
  0
ARC
  5
BD34
  8
CW
 10
1593.6104558828510562
 20
-332.5042586745908011
 30
0.0
 40
638.190203147198531
 50
32.0694360223845933
 51
35.9126000708346922
  0
ARC
  5
BD35
  8
CW
 10
2126.9214850863791071
 20
0.6265923513511169
 30
0.0
 40
9.4245099594733102
 50
344.5415592016768755
 51
37.3224141974128685
  0
ARC
  5
BD36
  8
CW
 10
-5750.7884647835999203
 20
663.3175707562542129
 30
0.0
 40
7914.7967137161112987
 50
354.7936073593396031
 51
355.178860838474975
  0
ARC
  5
BD37
  8
CW
 10
2130.1564617603798979
 20
-55.0393413416506405
 30
0.0
 40
1.205597607453444
 50
200.4232321088757942
 51
6.6220280488220027
  0
ARC
  5
BD38
  8
CW
 10
2189.9760068428768136
 20
141.3825632205781915
 30
0.0
 40
125.1160327329379953
 50
218.9299915090577997
 51
225.642417924067189
  0
ARC
  5
BD39
  8
CW
 10
2216.9150202589398759
 20
142.5010449851052101
 30
0.0
 40
147.6508576943708135
 50
204.1337857180772062
 51
212.6865080327972919
  0
ARC
  5
BD3A
  8
CW
 10
1710.9924610416799169
 20
-90.740105539659524
 30
0.0
 40
409.4595852570133729
 50
24.9731756599469499
 51
29.3832103734151495
  0
ARC
  5
BD3B
  8
CW
 10
2333.8381419029069548
 20
296.0286624874091785
 30
0.0
 40
324.5532823824656816
 50
205.125688185226096
 51
214.937944627811504
  0
ARC
  5
BD3C
  8
CW
 10
2030.1642888855110414
 20
153.0472633763482975
 30
0.0
 40
11.1089204160948594
 50
27.7607982056679816
 51
74.4242750536743216
  0
ARC
  5
BD3D
  8
CW
 10
2044.0738904567629106
 20
257.3742580480549123
 30
0.0
 40
94.2614848059750443
 50
236.5647181589991135
 51
263.3433477790284201
  0
ARC
  5
BD3E
  8
CW
 10
2016.0213545798410451
 20
214.1682019611126009
 30
0.0
 40
42.7506908919743225
 50
219.3601162644204123
 51
236.0336806288262892
  0
ARC
  5
BD3F
  8
CW
 10
1983.9248424795289338
 20
187.4357026982582966
 30
0.0
 40
1.0298052597065459
 50
107.0657895619562936
 51
201.6341043104783068
  0
ARC
  5
BD40
  8
CW
 10
1983.2785878298250282
 20
185.4132248395492866
 30
0.0
 40
3.0265566784076339
 50
39.329683456846098
 51
83.4729016519833351
  0
ARC
  5
BD41
  8
CW
 10
1986.4528305271860518
 20
188.8847677092774973
 30
0.0
 40
1.762700110103977
 50
241.7926380104946134
 51
324.4902825613203277
  0
ARC
  5
BD42
  8
CW
 10
1980.10682123576089
 20
194.5097189939864109
 30
0.0
 40
10.2346757994296294
 50
319.4859398498996939
 51
340.4633350659448183
  0
ARC
  5
BD43
  8
CW
 10
1990.4782122322098985
 20
190.655979067023992
 30
0.0
 40
0.8443356879330149
 50
352.3962853296033018
 51
149.2927163406044997
  0
ARC
  5
BD44
  8
CW
 10
2005.6171920381239033
 20
189.6522600799239058
 30
0.0
 40
14.3298575378095698
 50
176.4311812024585038
 51
225.1486088920136979
  0
ARC
  5
BD45
  8
CW
 10
2038.6804136961059157
 20
243.7220873098335971
 30
0.0
 40
77.3883637793050525
 50
236.0940553415167926
 51
259.9367222619263202
  0
ARC
  5
BD46
  8
CW
 10
2024.0990533264439364
 20
169.0585578530800035
 30
0.0
 40
1.8641532151868521
 50
304.6113095229711121
 51
8.9622161759880807
  0
ARC
  5
BD47
  8
CW
 10
2037.2085040617960203
 20
201.3878052898907072
 30
0.0
 40
33.9625766475083992
 50
213.8818116480165941
 51
250.6232345913118991
  0
ARC
  5
BD48
  8
CW
 10
2006.3976539623720328
 20
180.4727433395109131
 30
0.0
 40
3.2813550327788099
 50
37.1484182367489595
 51
112.6750226838197051
  0
ARC
  5
BD49
  8
CW
 10
2003.0703257686609504
 20
183.7551774663293997
 30
0.0
 40
2.078022310237793
 50
211.7482417859955888
 51
352.9594356048211807
  0
ARC
  5
BD4A
  8
CW
 10
2014.8813252565400944
 20
189.8385579168686093
 30
0.0
 40
15.3580914291109902
 50
179.3599370227703957
 51
207.8590678090841095
  0
ARC
  5
BD4B
  8
CW
 10
2001.2290034895690951
 20
190.2078297366635979
 30
0.0
 40
1.71623711056457
 50
111.9486047092414935
 51
186.6150420437508899
  0
ARC
  5
BD4C
  8
CW
 10
2000.2175325557220731
 20
193.3582618333549874
 30
0.0
 40
1.6019012147536471
 50
283.3539557477329822
 51
358.259513005130998
  0
ARC
  5
BD4D
  8
CW
 10
2009.2305604891269013
 20
202.8150476780782867
 30
0.0
 40
12.0535943835760495
 50
176.0556318554679081
 51
232.0546790307508047
  0
ARC
  5
BD4E
  8
CW
 10
1998.3986645606250931
 20
203.2796894749523915
 30
0.0
 40
1.24758160203154
 50
50.0766585018429993
 51
163.0124160832305904
  0
ARC
  5
BD4F
  8
CW
 10
2007.7497044813760567
 20
206.5325966144538938
 30
0.0
 40
8.8533259367503483
 50
195.0316445253758104
 51
232.3864701369147099
  0
ARC
  5
BD50
  8
CW
 10
2001.2195521715480027
 20
195.9790642636201028
 30
0.0
 40
3.715361789848008
 50
357.4422331075621173
 51
72.3471118709518493
  0
ARC
  5
BD51
  8
CW
 10
2008.8198932154589329
 20
196.2688064166501078
 30
0.0
 40
3.9152726887139471
 50
186.6815596311402032
 51
262.4120414590930181
  0
ARC
  5
BD52
  8
CW
 10
2008.1279536756039761
 20
190.8431494801639872
 30
0.0
 40
1.554543303852568
 50
348.5559714544850181
 51
83.5387247311138879
  0
LINE
  5
BD53
  8
CW
 10
2009.6515910990478915
 20
190.5347116656278956
 30
0.0
 11
2009.6515910990478915
 21
190.5347116656278956
 31
0.0
  0
ARC
  5
BD54
  8
CW
 10
2020.407037237655004
 20
192.8697195948768979
 30
0.0
 40
11.0059930796877303
 50
192.2488383494930986
 51
213.6422662968963095
  0
ARC
  5
BD55
  8
CW
 10
2008.0065310678940023
 20
184.8261282398727019
 30
0.0
 40
3.7777723688518172
 50
337.8708212179572001
 51
31.0090310401671694
  0
ARC
  5
BD56
  8
CW
 10
2014.960757381411895
 20
183.0608581455036017
 30
0.0
 40
3.471642636582974
 50
174.3431975463894048
 51
223.949136781569905
  0
ARC
  5
BD57
  8
CW
 10
2041.8536799024229822
 20
208.984953874159288
 30
0.0
 40
40.8251969663873027
 50
223.9491367816245884
 51
254.4634651186030112
  0
ARC
  5
BD58
  8
CW
 10
2031.327363518347056
 20
171.1220537681896872
 30
0.0
 40
1.526309691397973
 50
254.4634651184942129
 51
32.7466332889613909
  0
ARC
  5
BD59
  8
CW
 10
1926.9391218375349126
 20
118.8205369004411978
 30
0.0
 40
118.2753530270913984
 50
26.6912012231960993
 51
42.6742806489126281
  0
ARC
  5
BD5A
  8
CW
 10
2011.9946692457729114
 20
198.6951449944751005
 30
0.0
 40
1.92560893996844
 50
8.8406187679102306
 51
108.0901518291175023
  0
ARC
  5
BD5B
  8
CW
 10
2010.8300316066190589
 20
202.2604334154588059
 30
0.0
 40
1.825079310917568
 50
213.2172556191898138
 51
288.0901518290871195
  0
ARC
  5
BD5C
  8
CW
 10
1997.072601849341936
 20
193.2519049683700132
 30
0.0
 40
14.6193865760732002
 50
33.217255619114141
 51
60.7735356814543621
  0
ARC
  5
BD5D
  8
CW
 10
2004.7854429628689559
 20
207.0374535897221051
 30
0.0
 40
1.1771088844447091
 50
104.5357829047891016
 51
240.7735356814798138
  0
ARC
  5
BD5E
  8
CW
 10
2006.0928574013819343
 20
201.9950503610988903
 30
0.0
 40
6.3862511203661612
 50
63.3722027399164602
 51
104.5357829048553953
  0
ARC
  5
BD5F
  8
CW
 10
2010.2352806327210146
 20
210.2572640147172933
 30
0.0
 40
2.8562509589184151
 50
243.3722027399302021
 51
296.627797260073919
  0
ARC
  5
BD60
  8
CW
 10
2012.683609961637103
 20
205.3739822059179119
 30
0.0
 40
2.6064185100302488
 50
346.092557579238985
 51
116.6277972600402961
  0
ARC
  5
BD61
  8
CW
 10
2021.5164311091759828
 20
203.1868623199366084
 30
0.0
 40
6.49315416235663
 50
166.0925575792255131
 51
222.7684916591830984
  0
ARC
  5
BD62
  8
CW
 10
1948.9657471102789259
 20
136.0782637825898007
 30
0.0
 40
92.3358180388883767
 50
39.2157061257569879
 51
42.7684916592145328
  0
ARC
  5
BD63
  8
CW
 10
2020.8267996570800733
 20
195.4012530688065112
 30
0.0
 40
0.9977912836619751
 50
251.1778218022469105
 51
351.4430867397123279
  0
ARC
  5
BD64
  8
CW
 10
2032.2297631144510888
 20
194.3801803277783904
 30
0.0
 40
10.4527659732620393
 50
155.6381110417208902
 51
175.2113053916849026
  0
ARC
  5
BD65
  8
CW
 10
2023.4349312933688907
 20
198.1747061545102042
 30
0.0
 40
0.8923811193517011
 50
351.23089142499731
 51
144.5774876274471126
  0
ARC
  5
BD66
  8
CW
 10
2043.5535974203100977
 20
193.7461320591843048
 30
0.0
 40
19.7098211525304912
 50
167.4209583698711015
 51
188.0613177084605923
  0
ARC
  5
BD67
  8
CW
 10
2114.7923237739109936
 20
231.2929412267824034
 30
0.0
 40
99.3036156220559008
 50
203.9497067007004034
 51
213.8877423033339937
  0
ARC
  5
BD68
  8
CW
 10
2033.0901536888829924
 20
177.1740418431512012
 30
0.0
 40
1.4486440184240601
 50
239.6075516956429112
 51
0.0483146197878694
  0
ARC
  5
BD69
  8
CW
 10
2038.839369501496094
 20
177.1788898658965934
 30
0.0
 40
4.3005738382351071
 50
111.0117863880521014
 51
180.0483146198787949
  0
ARC
  5
BD6A
  8
CW
 10
2034.5272014147419668
 20
184.5514107707525966
 30
0.0
 40
4.3530783508785387
 50
309.5214285107040837
 51
349.5987651619452095
  0
ARC
  5
BD6B
  8
CW
 10
2022.5365270276361116
 20
185.552183492798406
 30
0.0
 40
16.3700153380553814
 50
353.7340618314769927
 51
23.0309967714157615
  0
LINE
  5
BD6C
  8
CW
 10
2037.6017430352960673
 20
191.9566092133993038
 30
0.0
 11
2035.0605115783130259
 21
194.8182333455469859
 31
0.0
  0
ARC
  5
BD6D
  8
CW
 10
2037.021814259365101
 20
196.5599449888713934
 30
0.0
 40
2.6230264305172342
 50
138.3937008002855009
 51
221.6062991997144991
  0
ARC
  5
BD6E
  8
CW
 10
2036.0897477146709207
 20
197.387655657362302
 30
0.0
 40
1.3764900313409441
 50
15.2586406193794204
 51
138.3937008002801861
  0
ARC
  5
BD6F
  8
CW
 10
2038.7060320152770601
 20
198.1013605245667009
 30
0.0
 40
1.335394586239065
 50
195.2586406192777986
 51
344.7413593807195866
  0
ARC
  5
BD70
  8
CW
 10
2027.7199635829970248
 20
201.0982865504363986
 30
0.0
 40
12.72289937013554
 50
344.7413593806754761
 51
35.6239593375720531
  0
ARC
  5
BD71
  8
CW
 10
2045.9155869081851051
 20
214.136585646885095
 30
0.0
 40
9.6618711562872157
 50
161.481715922257905
 51
215.6239593375755987
  0
ARC
  5
BD72
  8
CW
 10
2039.0181670486410894
 20
216.8812011892291025
 30
0.0
 40
2.2872559143695259
 50
16.3629219854748591
 51
171.854762482927697
  0
ARC
  5
BD73
  8
CW
 10
2012.3033386599900041
 20
209.189464119652996
 30
0.0
 40
30.0873144796854497
 50
0.5331414331690522
 51
16.0850379927464395
  0
ARC
  5
BD74
  8
CW
 10
1687.296773541849916
 20
196.4584656986077107
 30
0.0
 40
355.3308646029233273
 50
357.8732017969978756
 51
2.0984378221093261
  0
ARC
  5
BD75
  8
CW
 10
1010.9406352495079773
 20
250.3211258867557945
 30
0.0
 40
1033.6192223905100036
 50
355.779909685921325
 51
356.2806942123892213
  0
ARC
  5
BD76
  8
CW
 10
2042.7874984401601068
 20
174.1792181676607925
 30
0.0
 40
1.0331614744238229
 50
175.5564064177281978
 51
341.7921787439840955
  0
ARC
  5
BD77
  8
CW
 10
2023.9159526635889961
 20
184.0554003268806014
 30
0.0
 40
22.3195080790275711
 50
332.8092134794902108
 51
8.6072709201456981
  0
ARC
  5
BD78
  8
CW
 10
1916.8711672788699616
 20
167.8525035037924908
 30
0.0
 40
130.583629298940906
 50
8.6072709201380881
 51
12.3629634492841607
  0
ARC
  5
BD79
  8
CW
 10
2045.9051700723030081
 20
196.1350405351035135
 30
0.0
 40
1.513591632549214
 50
31.2116676671716498
 51
192.3629634493211995
  0
ARC
  5
BD7A
  8
CW
 10
2043.1151661565988888
 20
194.4445774672558969
 30
0.0
 40
4.7757668628815813
 50
355.7034631515437013
 51
31.2116676670629793
  0
ARC
  5
BD7B
  8
CW
 10
2049.479691280114821
 20
193.9664132860011989
 30
0.0
 40
1.606695125418681
 50
175.7034631515751926
 51
4.2965368484253768
  0
ARC
  5
BD7C
  8
CW
 10
2100.7232272916908187
 20
197.816319283132998
 30
0.0
 40
49.7812583185195976
 50
168.4811453881553973
 51
184.2965368485122042
  0
ARC
  5
BD7D
  8
CW
 10
2100.7232272918299714
 20
197.8163192831146091
 30
0.0
 40
49.7812583186596029
 50
161.7624106550696865
 51
168.4811453881667092
  0
ARC
  5
BD7E
  8
CW
 10
2055.8398530855088211
 20
212.6058580805404858
 30
0.0
 40
2.5240076793642809
 50
354.7643580712328912
 51
161.7624106550483134
  0
ARC
  5
BD7F
  8
CW
 10
2040.9585063454360352
 20
213.9695011523101869
 30
0.0
 40
17.4677021096406193
 50
335.6662294032095133
 51
354.7643580712203857
  0
ARC
  5
BD80
  8
CW
 10
2088.2425001333140244
 20
192.5863991107499089
 30
0.0
 40
34.4265472967423989
 50
155.666229403204909
 51
169.3453675298040935
  0
ARC
  5
BD81
  8
CW
 10
2056.4224489558177993
 20
198.5727690220097941
 30
0.0
 40
2.0482786331322562
 50
169.3453675297876089
 51
243.8179686655016098
  0
ARC
  5
BD82
  8
CW
 10
2054.8828952680541988
 20
195.4415042762092867
 30
0.0
 40
1.440997003128301
 50
296.1820313344360898
 51
63.8179686655031873
  0
ARC
  5
BD83
  8
CW
 10
2341.9675530304261883
 20
42.0951769061624006
 30
0.0
 40
324.3040491269433119
 50
152.0396809521132866
 51
157.3534971868712091
  0
ARC
  5
BD84
  8
CW
 10
2056.4291914961982002
 20
163.7818845992626109
 30
0.0
 40
14.1249230643823704
 50
166.9693332695273114
 51
203.9237312007417984
  0
ARC
  5
BD85
  8
CW
 10
-787.8054035719355852
 20
-1558.4719736318090781
 30
0.0
 40
3311.0198250554781225
 50
30.1692034332466115
 51
31.2268745324848815
  0
ARC
  5
BD86
  8
CW
 10
2078.1164417862091796
 20
112.374316244062797
 30
0.0
 40
7.6686114471174314
 50
243.7141603000389125
 51
267.8317597642707142
  0
ARC
  5
BD87
  8
CW
 10
2077.7644442610921942
 20
103.0772171941348034
 30
0.0
 40
1.635148706812878
 50
332.9247520467287131
 51
87.8317597642595871
  0
ARC
  5
BD88
  8
CW
 10
2082.8894094454622063
 20
100.4574331706614032
 30
0.0
 40
4.1205907305355032
 50
152.9247520466788046
 51
207.0752479532102086
  0
ARC
  5
BD89
  8
CW
 10
2218.7009790123929633
 20
146.4396510281667929
 30
0.0
 40
147.4625272119772887
 50
198.9378145683915022
 51
217.4416248611966012
  0
ARC
  5
BD8A
  8
CW
 10
2102.4162792637612256
 20
57.2364939316177868
 30
0.0
 40
0.9134840410812666
 50
209.3041914764139904
 51
56.0733742456788704
  0
ARC
  5
BD8B
  8
CW
 10
2617.0742372582508324
 20
129.0753216217557053
 30
0.0
 40
519.0383150344459864
 50
179.5927418253664882
 51
187.8712341040165086
  0
ARC
  5
BD8C
  8
CW
 10
2087.8241809846640535
 20
132.7070268675645082
 30
0.0
 40
10.2250151878350692
 50
0.3226842349760301
 51
57.084135298247098
  0
ARC
  5
BD8D
  8
CW
 10
2138.7544985083518441
 20
207.8942762895555063
 30
0.0
 40
80.5906026473656993
 50
215.5022158037488964
 51
235.73521765515369
  0
ARC
  5
BD8E
  8
CW
 10
2043.1845037697300995
 20
147.8022337082616104
 30
0.0
 40
32.7771004115260567
 50
23.9209143388059218
 51
39.9928469144291086
  0
ARC
  5
BD8F
  8
CW
 10
2125.4083712236829342
 20
215.8429871012596948
 30
0.0
 40
73.9493551567923788
 50
213.3075632001084045
 51
219.4373716179310918
  0
ARC
  5
BD90
  8
CW
 10
2065.3611490956068337
 20
175.0521270476158975
 30
0.0
 40
1.7643307383731051
 50
53.933923640754891
 51
174.0523891740037072
  0
ARC
  5
BD91
  8
CW
 10
2068.3750192981060536
 20
179.1903191506476958
 30
0.0
 40
3.355048860670649
 50
233.9339236408063982
 51
276.3488334072122257
  0
ARC
  5
BD92
  8
CW
 10
2069.0021186619442233
 20
173.5541701307492133
 30
0.0
 40
2.315879580654356
 50
8.8133997732125948
 51
96.3488334072516324
  0
ARC
  5
BD93
  8
CW
 10
2074.9234195025978806
 20
174.472253986737087
 30
0.0
 40
3.67617195551923
 50
188.8133997730587055
 51
241.3237643327248918
  0
ARC
  5
BD94
  8
CW
 10
2073.9660794082628854
 20
169.7373727438113065
 30
0.0
 40
1.711635239325034
 50
341.0291232767685869
 51
118.1192009182049958
  0
ARC
  5
BD95
  8
CW
 10
2081.7746676417591516
 20
165.3620230489215999
 30
0.0
 40
7.2731888481293669
 50
148.3271813320571937
 51
210.9181740707560948
  0
ARC
  5
BD96
  8
CW
 10
2131.8353021633051867
 20
199.2331844930376121
 30
0.0
 40
67.7060131754153502
 50
213.7426498218538882
 51
234.8174153547226126
  0
ARC
  5
BD97
  8
CW
 10
2093.5733261069231048
 20
145.334152211253496
 30
0.0
 40
1.6218359700354099
 50
242.4896797657100933
 51
25.9683212189402006
  0
ARC
  5
BD98
  8
CW
 10
2173.5465073666300668
 20
193.5912781055835126
 30
0.0
 40
91.7896160551751876
 50
191.9543050989175867
 51
211.1981505022249905
  0
ARC
  5
BD99
  8
CW
 10
2076.4334303620771607
 20
173.1498783153382135
 30
0.0
 40
7.4523580668322964
 50
11.0540436295489108
 51
21.5925642910983093
  0
ARC
  5
BD9A
  8
CW
 10
2097.3235999739999897
 20
181.1041975621249946
 30
0.0
 40
14.9019008636212895
 50
179.7610755571089101
 51
200.4715433404670932
  0
ARC
  5
BD9B
  8
CW
 10
2078.0489685911011293
 20
180.5519124150864059
 30
0.0
 40
4.4158153071080779
 50
7.9982109044051111
 51
43.7426784898857832
  0
ARC
  5
BD9C
  8
CW
 10
2089.4471447087707929
 20
192.1632583413008888
 30
0.0
 40
11.8580228190363108
 50
201.221291693574301
 51
226.1965820236889897
  0
ARC
  5
BD9D
  8
CW
 10
2080.1736427923601696
 20
188.3347824244216895
 30
0.0
 40
1.839835317016721
 50
54.6091741268561677
 51
194.6005929550840108
  0
ARC
  5
BD9E
  8
CW
 10
2083.6374590384371004
 20
192.706920423205986
 30
0.0
 40
3.7418758478873331
 50
230.1389185544747988
 51
280.0188170779720167
  0
ARC
  5
BD9F
  8
CW
 10
2085.5852855154457757
 20
186.7590658343594043
 30
0.0
 40
2.6082867513751151
 50
316.3699663993829176
 51
119.8150822191758067
  0
ARC
  5
BDA0
  8
CW
 10
2094.2959141997757797
 20
179.495533796479009
 30
0.0
 40
8.7408726344651093
 50
141.3113359379345013
 51
190.854226216217711
  0
ARC
  5
BDA1
  8
CW
 10
2177.1096207342061462
 20
195.6235125709245892
 30
0.0
 40
93.1103935964624725
 50
191.004814181171696
 51
207.9117947191319047
  0
ARC
  5
BDA2
  8
CW
 10
2095.7109602151999752
 20
152.8250464646951912
 30
0.0
 40
1.1810812472948149
 50
221.8242536643928133
 51
11.2731559830126198
  0
ARC
  5
BDA3
  8
CW
 10
1624.9302181635309807
 20
77.3860454008930816
 30
0.0
 40
477.9669291884446807
 50
9.1091733680889675
 51
11.1394346205872701
  0
ARC
  5
BDA4
  8
CW
 10
2141.7017363746240335
 20
179.9175605112507981
 30
0.0
 40
48.88331106628371
 50
188.5058235553501049
 51
192.0313710955412034
  0
ARC
  5
BDA5
  8
CW
 10
2094.5364475704818688
 20
172.5951361492768115
 30
0.0
 40
1.183934154975135
 50
56.488421965664628
 51
175.5385119884876985
  0
ARC
  5
BDA6
  8
CW
 10
2096.1497532783241695
 20
174.4860094051070973
 30
0.0
 40
1.318207671806324
 50
223.281393268477899
 51
316.7186067315220157
  0
ARC
  5
BDA7
  8
CW
 10
2082.3291394601651518
 20
175.1157810721286978
 30
0.0
 40
14.8596039746254807
 50
354.0765294324842216
 51
13.2799601378312406
  0
ARC
  5
BDA8
  8
CW
 10
2098.7713992307458284
 20
178.2106443144161858
 30
0.0
 40
2.0054695662372128
 50
36.5454977513462822
 51
170.8610694025036025
  0
ARC
  5
BDA9
  8
CW
 10
2095.0860557073629025
 20
176.7699991048405082
 30
0.0
 40
5.9156804824308411
 50
353.9226073399349843
 51
26.4487160128383785
  0
ARC
  5
BDAA
  8
CW
 10
2102.8841764603230331
 20
175.543495256900286
 30
0.0
 40
2.0075108217533568
 50
162.6038006554418871
 51
256.5217029231725974
  0
ARC
  5
BDAB
  8
CW
 10
2102.6072278504689166
 20
174.847288452229094
 30
0.0
 40
1.2704466335753071
 50
261.3553266729970801
 51
332.5145700360678234
  0
ARC
  5
BDAC
  8
CW
 10
2088.1698039457451159
 20
176.4164285793659985
 30
0.0
 40
15.7130173783198099
 50
352.115417206696975
 51
7.8845827932425587
  0
LINE
  5
BDAD
  8
CW
 10
2103.734276917355146
 20
178.5719090936335931
 30
0.0
 11
2102.8534173434541117
 21
181.121961937952193
 31
0.0
  0
ARC
  5
BDAE
  8
CW
 10
2105.9560333969161547
 20
182.2488077075562956
 30
0.0
 40
3.300910141714732
 50
33.1364971946319926
 51
199.9606237790711134
  0
ARC
  5
BDAF
  8
CW
 10
2105.8067608940150421
 20
181.8590528442553023
 30
0.0
 40
3.6471832840056551
 50
311.775175816737999
 51
36.9846536085279922
  0
ARC
  5
BDB0
  8
CW
 10
2119.8115928796819389
 20
169.5202552045684001
 30
0.0
 40
15.0500517367033098
 50
140.273432156980391
 51
170.970967768909702
  0
ARC
  5
BDB1
  8
CW
 10
2244.750791680302882
 20
149.6669291061112972
 30
0.0
 40
141.5568023633503003
 50
170.9709677689309899
 51
176.0578461002369863
  0
ARC
  5
BDB2
  8
CW
 10
2088.881195794226187
 20
160.408267940618714
 30
0.0
 40
14.6824605690074197
 50
328.471893186297109
 51
356.0578461002330073
  0
ARC
  5
BDB3
  8
CW
 10
2106.5266095811239211
 20
149.5832342427011099
 30
0.0
 40
6.0187950033459048
 50
148.4718931862975069
 51
192.0097039030611086
  0
ARC
  5
BDB4
  8
CW
 10
2102.4572159182930591
 20
148.7175375397605137
 30
0.0
 40
1.858338830692446
 50
192.0097039030071073
 51
316.4502641864235102
  0
ARC
  5
BDB5
  8
CW
 10
2095.2317384499970103
 20
155.5861898076834109
 30
0.0
 40
11.8275869779950202
 50
316.4502641864780799
 51
3.4857615467470668
  0
ARC
  5
BDB6
  8
CW
 10
2118.8755736203720517
 20
155.2584955507086022
 30
0.0
 40
11.8843236001567405
 50
153.8197517682081923
 51
174.9466161154282133
  0
ARC
  5
BDB7
  8
CW
 10
2098.4811618416151759
 20
165.1170093209680942
 30
0.0
 40
10.7684340040569992
 50
334.6221919031380025
 51
17.3919204920712787
  0
ARC
  5
BDB8
  8
CW
 10
2111.7079555415280083
 20
169.2786349560072097
 30
0.0
 40
3.0976505330674451
 50
110.8420345348558982
 51
197.7210763646714895
  0
ARC
  5
BDB9
  8
CW
 10
2110.085565390470947
 20
174.9809051820546983
 30
0.0
 40
2.8551174532865771
 50
280.4992835390817163
 51
0.594211509244963
  0
ARC
  5
BDBA
  8
CW
 10
2124.250425357066888
 20
176.0557017296972901
 30
0.0
 40
11.3580880538491904
 50
163.8373970604390024
 51
185.2799056416631061
  0
ARC
  5
BDBB
  8
CW
 10
2114.6328691526268813
 20
178.8430541472370976
 30
0.0
 40
1.3447608922541949
 50
104.3482240636891021
 51
163.8373970604218925
  0
ARC
  5
BDBC
  8
CW
 10
2115.2803119344571314
 20
176.3119375983449117
 30
0.0
 40
3.9573712994561059
 50
71.1861840539333031
 51
104.3482240636500933
  0
ARC
  5
BDBD
  8
CW
 10
2116.2240700616148388
 20
179.0820191905953038
 30
0.0
 40
1.030934655634302
 50
313.6842237348969888
 51
71.1861840539795878
  0
ARC
  5
BDBE
  8
CW
 10
2117.3747762661091656
 20
177.8772099386042953
 30
0.0
 40
0.6351055908017303
 50
133.6842237349669062
 51
325.7276324260942033
  0
ARC
  5
BDBF
  8
CW
 10
2118.8599975297138371
 20
176.8651099405363141
 30
0.0
 40
1.1621780840680871
 50
10.7520599536667198
 51
145.7276324261098921
  0
ARC
  5
BDC0
  8
CW
 10
2116.5055136139521892
 20
176.4180094995184049
 30
0.0
 40
3.5587367238563732
 50
310.8643442928232048
 51
10.7520599537524308
  0
ARC
  5
BDC1
  8
CW
 10
2119.8316424985528101
 20
172.5733893806998083
 30
0.0
 40
1.5249860474008221
 50
130.8643442929052014
 51
191.5566476296307883
  0
ARC
  5
BDC2
  8
CW
 10
2117.6142052919790331
 20
172.1199631216246928
 30
0.0
 40
0.7383352151500188
 50
251.0184621459227969
 51
11.5566476296471397
  0
ARC
  5
BDC3
  8
CW
 10
2117.1532743214529546
 20
170.7799198335785036
 30
0.0
 40
0.6787651247791466
 50
71.0184621459806493
 51
202.7602971868763007
  0
ARC
  5
BDC4
  8
CW
 10
2112.9966877149431639
 20
169.0360399683312949
 30
0.0
 40
3.82882061504072
 50
352.3856373892551233
 51
22.7602971869980415
  0
ARC
  5
BDC5
  8
CW
 10
2117.610387793443806
 20
168.4192637773815022
 30
0.0
 40
0.8259233396875472
 50
172.3856373892488136
 51
290.9534674080667855
  0
ARC
  5
BDC6
  8
CW
 10
2117.6668851931790414
 20
165.9530969765880002
 30
0.0
 40
1.7116096553439719
 50
348.3817031814043048
 51
81.9780028099540345
  0
ARC
  5
BDC7
  8
CW
 10
2112.8400975707841098
 20
167.5390850702252123
 30
0.0
 40
6.7838662758584443
 50
297.8935764975906864
 51
343.4650416411486731
  0
ARC
  5
BDC8
  8
CW
 10
2122.1201068981781646
 20
153.3229168901316939
 30
0.0
 40
10.2402654361273608
 50
126.6056260875269004
 51
166.1251711683862879
  0
ARC
  5
BDC9
  8
CW
 10
2099.2118363715981104
 20
158.1329876476100083
 30
0.0
 40
13.1788159691536908
 50
319.8575900169398096
 51
349.7086712917517843
  0
ARC
  5
BDCA
  8
CW
 10
2112.2890272819258826
 20
147.1044165992020112
 30
0.0
 40
3.9279751231278861
 50
139.85759001695709
 51
183.8611496786344048
  0
ARC
  5
BDCB
  8
CW
 10
2110.0216109357429559
 20
147.2212827301916036
 30
0.0
 40
1.6951012834195109
 50
193.001955125550495
 51
286.7540272253369835
  0
ARC
  5
BDCC
  8
CW
 10
2083.2607714803011731
 20
193.4716666425362916
 30
0.0
 40
55.0854680112958874
 50
299.648407351045023
 51
325.5089235900811104
  0
LINE
  5
BDCD
  8
CW
 10
2128.6630071235881587
 20
162.2779848365208863
 30
0.0
 11
2128.6630071235881587
 21
162.2779848365208863
 31
0.0
  0
LINE
  5
BDCE
  8
CW
 10
2128.6630071235881587
 20
162.2779848365208863
 30
0.0
 11
2128.6630071235881587
 21
162.2779848365208863
 31
0.0
  0
ARC
  5
BDCF
  8
CW
 10
2132.5535385641737776
 20
156.7648736013505015
 30
0.0
 40
6.7476388745657756
 50
110.9802317915405041
 51
125.2101252860455958
  0
ARC
  5
BDD0
  8
CW
 10
2128.6593707292181534
 20
166.9199987262875027
 30
0.0
 40
4.1285327602480688
 50
290.9802317916223728
 51
353.9552520539132274
  0
ARC
  5
BDD1
  8
CW
 10
2136.3269484052211737
 20
166.1080488166705891
 30
0.0
 40
3.581915350806113
 50
103.6319478080567933
 51
173.9552520538742897
  0
ARC
  5
BDD2
  8
CW
 10
2137.1099884895861578
 20
162.879227513394909
 30
0.0
 40
6.9043299519974202
 50
71.8533141047650759
 51
103.6319478080490057
  0
ARC
  5
BDD3
  8
CW
 10
2138.7336001475368903
 20
167.8330011444249124
 30
0.0
 40
1.691270581213445
 50
329.0390945425198197
 51
71.8533141047925454
  0
ARC
  5
BDD4
  8
CW
 10
2139.1739663317498525
 20
167.5688112345555965
 30
0.0
 40
1.1777351056374969
 50
241.7529156620607012
 51
329.0390945424990718
  0
ARC
  5
BDD5
  8
CW
 10
2138.205183843083887
 20
165.7655992678548103
 30
0.0
 40
0.869241422610229
 50
61.7529156620147006
 51
195.8670118068754107
  0
ARC
  5
BDD6
  8
CW
 10
2134.5830527970178991
 20
164.7360624007349941
 30
0.0
 40
2.8963633728556291
 50
274.5568843892813788
 51
15.8670118069475308
  0
ARC
  5
BDD7
  8
CW
 10
2135.5206105900538205
 20
152.9725879153340884
 30
0.0
 40
8.9044139991637348
 50
94.5568843892336446
 51
119.083822669805798
  0
ARC
  5
BDD8
  8
CW
 10
2181.8053917479760457
 20
69.759968471594874
 30
0.0
 40
104.1232199228114013
 50
119.0838226698468958
 51
138.9464305837225879
  0
ARC
  5
BDD9
  8
CW
 10
2181.8053917466618259
 20
69.7599684727617984
 30
0.0
 40
104.1232199210543996
 50
138.9464305837319955
 51
140.833203399420313
  0
ARC
  5
BDDA
  8
CW
 10
2814.258595612751833
 20
145.171109927528704
 30
0.0
 40
713.2463126034698462
 50
180.7751362686724121
 51
187.455766919991504
  0
ARC
  5
BDDB
  8
CW
 10
2126.9278452707731049
 20
59.8439090738109982
 30
0.0
 40
21.1568884823122794
 50
199.9656802419719099
 51
220.2735254145962926
  0
ARC
  5
BDDC
  8
CW
 10
1844.6870792548429563
 20
-164.4033191319333866
 30
0.0
 40
339.3354336853087716
 50
30.8053294419689507
 51
38.3554531646509034
  0
ARC
  5
BDDD
  8
CW
 10
2137.8784403742329232
 20
11.1291840232315806
 30
0.0
 40
2.462960363886435
 50
225.3143347968378976
 51
314.6856652031622161
  0
ARC
  5
BDDE
  8
CW
 10
1721.2346380578348999
 20
238.3956032217018901
 30
0.0
 40
476.9563229888210003
 50
331.3038496882961113
 51
342.8236800667186799
  0
ARC
  5
BDDF
  8
CW
 10
2168.9168495999469997
 20
97.622052355094695
 30
0.0
 40
8.0024753304095473
 50
359.4418645518369999
 51
52.8188010527696576
  0
ARC
  5
BDE0
  8
CW
 10
2153.6967277981648294
 20
77.5566135899688334
 30
0.0
 40
33.1872711504692717
 50
52.8188010527420175
 51
79.7816130545810864
  0
ARC
  5
BDE1
  8
CW
 10
2172.1627413643232103
 20
135.6469281089867138
 30
0.0
 40
28.3703487795253189
 50
203.4869355357218978
 51
243.6808759900818018
  0
ARC
  5
BDE2
  8
CW
 10
2137.5003110418201686
 20
121.2020052774991967
 30
0.0
 40
9.1946606702326736
 50
19.9565456560435415
 51
66.5072352144115513
  0
ARC
  5
BDE3
  8
CW
 10
2143.0767125145180216
 20
134.5849862699674873
 30
0.0
 40
5.3065422792110333
 50
176.9555131042872063
 51
248.8911390691069982
  0
ARC
  5
BDE4
  8
CW
 10
2140.3798505719128116
 20
134.7284226115463923
 30
0.0
 40
2.6058686000049889
 50
57.3693682630323494
 51
176.9555131043406107
  0
ARC
  5
BDE5
  8
CW
 10
2143.2575588211147988
 20
139.222873873399891
 30
0.0
 40
2.7309185339087132
 50
237.3693682629796058
 51
302.6306317370205079
  0
ARC
  5
BDE6
  8
CW
 10
2138.2580567354038976
 20
147.0311770479794973
 30
0.0
 40
12.0026292482902299
 50
302.6306317370018064
 51
319.9982243255715275
  0
ARC
  5
BDE7
  8
CW
 10
2145.210345804076951
 20
140.7740013066139966
 30
0.0
 40
2.6745364274358501
 50
326.9592834455539219
 51
11.9838713527320806
  0
ARC
  5
BDE8
  8
CW
 10
2106.2067317530900254
 20
127.438935025189906
 30
0.0
 40
43.8766001082863184
 50
18.4561450867743488
 51
42.7815259523646887
  0
ARC
  5
BDE9
  8
CW
 10
2139.1689801204479409
 20
158.4248942097042914
 30
0.0
 40
1.407072498552705
 50
55.0142558624697315
 51
237.3527933660504061
  0
ARC
  5
BDEA
  8
CW
 10
2140.4576738488499359
 20
160.2663145616515976
 30
0.0
 40
0.8404951729958758
 50
235.0142558623956859
 51
51.888953642891849
  0
ARC
  5
BDEB
  8
CW
 10
2142.0282861801720173
 20
162.2685955890829064
 30
0.0
 40
1.704294092957847
 50
24.5799926107609217
 51
231.8889536431636884
  0
ARC
  5
BDEC
  8
CW
 10
2145.469351862154781
 20
163.8425852204044872
 30
0.0
 40
2.0796689601418379
 50
204.5799926109336866
 51
320.7775886942857255
  0
ARC
  5
BDED
  8
CW
 10
2148.8313892120418132
 20
159.3107940287443967
 30
0.0
 40
3.6624047788649019
 50
4.1792838735413467
 51
118.560098844521093
  0
ARC
  5
BDEE
  8
CW
 10
2176.3348220244970435
 20
151.8105303722092003
 30
0.0
 40
25.0836205376260999
 50
161.9617940238686913
 51
173.090925597595799
  0
ARC
  5
BDEF
  8
CW
 10
2149.1632287644629287
 20
155.1030209424648092
 30
0.0
 40
2.2867279154709661
 50
264.1885329265326732
 51
353.0909255975718111
  0
ARC
  5
BDF0
  8
CW
 10
2148.7705452991058337
 20
151.2448047825967024
 30
0.0
 40
1.5914201271171351
 50
84.1885329266590361
 51
182.4009052314318069
  0
ARC
  5
BDF1
  8
CW
 10
2961.2540142235420717
 20
351.5496852952393283
 30
0.0
 40
838.37008979748191
 50
193.8276042123106038
 51
194.3949280782975109
  0
ARC
  5
BDF2
  8
CW
 10
2154.3579459027751
 20
143.7887966827424009
 30
0.0
 40
5.1958037998849571
 50
187.3132124138205938
 51
235.0751276177375075
  0
ARC
  5
BDF3
  8
CW
 10
2139.7030345292100719
 20
131.5760366243407873
 30
0.0
 40
14.1306398948062402
 50
22.028145670158171
 51
34.2495533747564807
  0
ARC
  5
BDF4
  8
CW
 10
2345.709145343984801
 20
268.153261862516274
 30
0.0
 40
233.3385096558326097
 50
214.2361271704359922
 51
223.0642410353927971
  0
ARC
  5
BDF5
  8
CW
 10
2175.7626897913728499
 20
109.9917390840030009
 30
0.0
 40
1.280153471531531
 50
245.6414583855442118
 51
4.2615541878815923
  0
ARC
  5
BDF6
  8
CW
 10
691.0672971308343904
 20
-191.218502360597796
 30
0.0
 40
1516.2116377430920693
 50
11.4622643254685901
 51
13.1176078234769307
  0
ARC
  5
BDF7
  8
CW
 10
2135.9627814380569362
 20
146.6367148532436886
 30
0.0
 40
32.361785826136078
 50
11.1353465568845404
 51
26.4524712018133314
  0
ARC
  5
BDF8
  8
CW
 10
2166.5823457485839754
 20
162.4194918541604125
 30
0.0
 40
2.1395982469406261
 50
59.529596911582189
 51
219.7119075136430979
  0
ARC
  5
BDF9
  8
CW
 10
2169.6039830712898038
 20
167.5091192543949035
 30
0.0
 40
3.7794311802081948
 50
239.1747440849480029
 51
271.6961105511284131
  0
ARC
  5
BDFA
  8
CW
 10
2170.216849206723964
 20
159.9928667739829109
 30
0.0
 40
3.7718978849837121
 50
52.2508797128749194
 51
97.6328493061391498
  0
ARC
  5
BDFB
  8
CW
 10
2172.2511599900399233
 20
162.0802534416162075
 30
0.0
 40
0.9363030553826583
 50
341.7630329057620884
 51
72.9285759299806386
  0
ARC
  5
BDFC
  8
CW
 10
2175.9375523016169609
 20
160.7619587701869932
 30
0.0
 40
2.9791068676867889
 50
159.8696508124369018
 51
191.5210442127026056
  0
ARC
  5
BDFD
  8
CW
 10
2168.4431102575358636
 20
160.379655050491408
 30
0.0
 40
4.5803016360451574
 50
329.9926850950823791
 51
357.3382561167107951
  0
ARC
  5
BDFE
  8
CW
 10
2184.184008255390836
 20
152.4713582575118096
 30
0.0
 40
13.0459763120370091
 50
154.4941511051704026
 51
179.4051694879483989
  0
LINE
  5
BDFF
  8
CW
 10
2171.1387349896099295
 20
152.6067959012189021
 30
0.0
 11
2171.1387349895730949
 21
152.6067959011490132
 31
0.0
  0
ARC
  5
BE00
  8
CW
 10
2204.2754268212238458
 20
150.6029030833543914
 30
0.0
 40
33.1972277753876313
 50
176.5393363011868928
 51
195.6561216343972944
  0
ARC
  5
BE01
  8
CW
 10
2173.5257875519278059
 20
142.2744811484841989
 30
0.0
 40
1.369576847336232
 50
207.4003030947546904
 51
332.599696905024075
  0
ARC
  5
BE02
  8
CW
 10
1860.6262061858481047
 20
187.3514142944378023
 30
0.0
 40
317.4235389675919237
 50
351.7209473501292223
 51
356.3498628210647894
  0
ARC
  5
BE03
  8
CW
 10
2174.1763332292121049
 20
167.8154076810207016
 30
0.0
 40
3.2987413625027782
 50
348.2388346819399771
 51
57.842107635520982
  0
ARC
  5
BE04
  8
CW
 10
2177.5679214368069552
 20
171.3174638853313922
 30
0.0
 40
1.783014898606724
 50
112.9255063186952981
 51
203.4445488182576867
  0
ARC
  5
BE05
  8
CW
 10
2168.2664469218038903
 20
180.0863087578613886
 30
0.0
 40
11.1744625777748503
 50
320.3747343654192719
 51
344.8873167529633861
  0
ARC
  5
BE06
  8
CW
 10
1906.3625237968940382
 20
197.1755323768425114
 30
0.0
 40
273.4245519014613137
 50
355.8047299621775892
 51
356.7287584007813166
  0
ARC
  5
BE07
  8
CW
 10
2180.8630062937818366
 20
180.4987453418764005
 30
0.0
 40
1.8625567265225389
 50
22.2901508638137287
 51
144.7719518113532047
  0
ARC
  5
BE08
  8
CW
 10
2066.2354496649809334
 20
206.2279757029691041
 30
0.0
 40
119.0112544480270031
 50
346.9049492108522941
 51
347.8626757822468107
  0
ARC
  5
BE09
  8
CW
 10
2183.4180963881940443
 20
178.8160080619182963
 30
0.0
 40
1.3431074070364659
 50
160.5187561912460126
 51
285.5095603408797729
  0
ARC
  5
BE0A
  8
CW
 10
2184.6968209784931787
 20
176.0098611905312112
 30
0.0
 40
1.769635737930584
 50
342.6376443852125817
 51
121.3083065469986934
  0
ARC
  5
BE0B
  8
CW
 10
2174.6545854317751036
 20
179.1335005669816098
 30
0.0
 40
12.2864595672721393
 50
314.9255399618323281
 51
342.7095793573981268
  0
ARC
  5
BE0C
  8
CW
 10
2185.2437289493650496
 20
168.8548651249599004
 30
0.0
 40
2.480506159197323
 50
140.4485684849315987
 51
167.9642144155608037
  0
ARC
  5
BE0D
  8
CW
 10
2181.3466058563999468
 20
169.5676308098919947
 30
0.0
 40
1.4840808316425611
 50
275.9602822081881754
 51
352.4294066167378787
  0
ARC
  5
BE0E
  8
CW
 10
2182.3640689418061811
 20
166.787994217986892
 30
0.0
 40
1.5635546931008351
 50
123.5164327263779995
 51
169.9802766124286109
  0
ARC
  5
BE0F
  8
CW
 10
2590.2546326589881573
 20
107.6961743068298034
 30
0.0
 40
413.7115111386078752
 50
171.7500967134253074
 51
174.3564174277273082
  0
ARC
  5
BE10
  8
CW
 10
2183.7063685094071843
 20
147.4335276469938094
 30
0.0
 40
5.2441530705567381
 50
169.5963845323290968
 51
226.6352582910637068
  0
ARC
  5
BE11
  8
CW
 10
2173.2817442326991113
 20
141.0313060646145118
 30
0.0
 40
7.2986762204410613
 50
320.5152830987345851
 51
20.7825801564329389
  0
ARC
  5
BE12
  8
CW
 10
2185.3954608068029302
 20
131.6197265083395962
 30
0.0
 40
8.0471657164574157
 50
143.6423349481671039
 51
167.4388819256789134
  0
ARC
  5
BE13
  8
CW
 10
2255.5826312624240018
 20
137.0840129607254028
 30
0.0
 40
78.1300569665610283
 50
182.7247792533470943
 51
196.5151641328718881
  0
ARC
  5
BE14
  8
CW
 10
2181.9157934709251094
 20
115.4370222581116963
 30
0.0
 40
1.3617469953954049
 50
204.4197087929306917
 51
335.5802912070691946
  0
ARC
  5
BE15
  8
CW
 10
2342.4623438526191421
 20
82.4551595697526665
 30
0.0
 40
162.5717834939239879
 50
158.1158257887555862
 51
168.4973774797805959
  0
ARC
  5
BE16
  8
CW
 10
2189.4708676892228141
 20
143.2912686970558127
 30
0.0
 40
2.148241704919625
 50
353.5725160424362912
 51
71.3087595925463802
  0
ARC
  5
BE17
  8
CW
 10
2190.976179713845795
 20
147.1339147578379141
 30
0.0
 40
1.9837008817771291
 50
121.0720922772748054
 51
245.6826469627816039
  0
ARC
  5
BE18
  8
CW
 10
2188.8797286390217778
 20
150.8793799577017012
 30
0.0
 40
2.3104638424036672
 50
297.661640476140974
 51
328.1968038347133074
  0
ARC
  5
BE19
  8
CW
 10
2191.9049938451162234
 20
148.7453412736414862
 30
0.0
 40
1.4024972917629259
 50
40.8183128616235393
 51
139.2002046875815893
  0
ARC
  5
BE1A
  8
CW
 10
2195.9900060612931156
 20
151.3440195872819061
 30
0.0
 40
3.459933156412617
 50
209.0854172262808959
 51
233.3267777031510946
  0
ARC
  5
BE1B
  8
CW
 10
2193.5542024917381241
 20
146.7636167979673871
 30
0.0
 40
1.842742801205794
 50
11.6025246493234402
 51
78.4373776024042684
  0
ARC
  5
BE1C
  8
CW
 10
2187.4925568475919135
 20
146.3204962741793054
 30
0.0
 40
7.9087089421275838
 50
322.7367528896400017
 51
5.9056714713519272
  0
ARC
  5
BE1D
  8
CW
 10
2194.6354282873089687
 20
139.4520796349931118
 30
0.0
 40
2.2463350542975919
 50
112.1965083156209033
 51
157.7629555596485034
  0
ARC
  5
BE1E
  8
CW
 10
2317.6307979420380434
 20
95.6415437792070122
 30
0.0
 40
132.8090249347011991
 50
160.3497818836665942
 51
165.470283080728791
  0
ARC
  5
BE1F
  8
CW
 10
2190.4283107463429587
 20
129.0414039718885988
 30
0.0
 40
1.36137211696552
 50
183.3879427942435996
 51
315.0884802826286091
  0
ARC
  5
BE20
  8
CW
 10
2100.3801426776590233
 20
174.836384864154212
 30
0.0
 40
102.3199506636066047
 50
332.8088823395810891
 51
348.8564020316749179
  0
ARC
  5
BE21
  8
CW
 10
2195.7773161196191722
 20
155.1353893064242868
 30
0.0
 40
4.9941768662462147
 50
359.1482666795071736
 51
32.1565813060659806
  0
ARC
  5
BE22
  8
CW
 10
2201.9236357681738809
 20
160.1432508309231082
 30
0.0
 40
3.0333545595105802
 50
129.2267397408488137
 51
230.7732602589848057
  0
ARC
  5
BE23
  8
CW
 10
2202.7960440484130231
 20
158.4678402328351865
 30
0.0
 40
4.8979661919374191
 50
47.1010267416523618
 51
124.7336178590896054
  0
ARC
  5
BE24
  8
CW
 10
2202.9914526082329758
 20
159.1049733065607086
 30
0.0
 40
4.3080243351015124
 50
316.7662118459048202
 51
43.2337881540952225
  0
ARC
  5
BE25
  8
CW
 10
2206.8132603283911521
 20
154.1253300262252139
 30
0.0
 40
2.1406732006404501
 50
108.6097468476608014
 51
169.5203769503393971
  0
ARC
  5
BE26
  8
CW
 10
2094.8053138103969104
 20
187.7691323771674945
 30
0.0
 40
114.8238789648276992
 50
335.5782058649415944
 51
343.1652345237832265
  0
ARC
  5
BE27
  8
CW
 10
2200.3977360762810349
 20
139.8651281677020961
 30
0.0
 40
1.127453392473093
 50
157.5813156779813937
 51
305.3084361263786946
  0
ARC
  5
BE28
  8
CW
 10
2233.1787419763131766
 20
115.0597485258818011
 30
0.0
 40
40.0350396344187871
 50
140.4096711809557974
 51
143.37248530046881
  0
ARC
  5
BE29
  8
CW
 10
2203.7857806540641832
 20
139.0244837245390102
 30
0.0
 40
2.1280990637183321
 50
74.6611691663771921
 51
133.2772364595795125
  0
ARC
  5
BE2A
  8
CW
 10
2204.0304973372099084
 20
139.2074764753957083
 30
0.0
 40
1.896192954525862
 50
16.2295699505211317
 51
80.3388077241570358
  0
ARC
  5
BE2B
  8
CW
 10
2204.5682583968800827
 20
139.2850363649139069
 30
0.0
 40
1.360300051763734
 50
314.1318777050403241
 51
19.4250964489543883
  0
ARC
  5
BE2C
  8
CW
 10
2206.8967627719580378
 20
137.6627104118566933
 30
0.0
 40
1.5248989745058861
 50
154.9363292883498104
 51
334.5792814850739774
  0
ARC
  5
BE2D
  8
CW
 10
2107.0827199184618621
 20
241.7515972055988129
 30
0.0
 40
145.6395326347366108
 50
314.0118037996140856
 51
323.8695132513157091
  0
ARC
  5
BE2E
  8
CW
 10
2218.5350375398897995
 20
158.9678496354831054
 30
0.0
 40
6.906627249382832
 50
333.4312470289169141
 51
7.1000980336190693
  0
ARC
  5
BE2F
  8
CW
 10
2228.6655292257378278
 20
161.4549802647700858
 30
0.0
 40
3.6613861313448148
 50
153.5044222437165047
 51
206.495577756378907
  0
ARC
  5
BE30
  8
CW
 10
2214.501484276499923
 20
170.6316455427204062
 30
0.0
 40
13.2450606679727905
 50
325.2838247939537837
 51
342.8353657406601087
  0
ARC
  5
BE31
  8
CW
 10
2229.8607364145168503
 20
166.363383764094408
 30
0.0
 40
2.7278963982219961
 50
91.6668893415062769
 51
172.4292492937429984
  0
ARC
  5
BE32
  8
CW
 10
2229.9767079241528336
 20
180.642768598684512
 30
0.0
 40
11.5542938335333396
 50
269.0313842355699876
 51
284.224296215054494
  0
ARC
  5
BE33
  8
CW
 10
2233.3425853209942034
 20
167.3646297776585072
 30
0.0
 40
2.1438119187597269
 50
32.8011435718053406
 51
104.2242962149751975
  0
ARC
  5
BE34
  8
CW
 10
2234.1084085955408227
 20
167.8581908331273098
 30
0.0
 40
1.2327203737906329
 50
306.9739602141821138
 51
32.8011435716053867
  0
ARC
  5
BE35
  8
CW
 10
2235.7710476449287853
 20
166.0341673081051113
 30
0.0
 40
1.246147726097818
 50
137.6677172447728026
 51
250.5587312973200085
  0
ARC
  5
BE36
  8
CW
 10
2235.0126231873618963
 20
164.0128534776208937
 30
0.0
 40
0.9133365147871636
 50
292.1024890211547245
 51
67.897510978845304
  0
LINE
  5
BE37
  8
CW
 10
2235.3562793060150398
 20
163.1666359752279902
 30
0.0
 11
2235.3562793060150398
 21
163.1666359752279902
 31
0.0
  0
ARC
  5
BE38
  8
CW
 10
2235.9732230608128702
 20
162.5532660072954911
 30
0.0
 40
0.8699668465790622
 50
135.1664309879843131
 51
286.5273125017305915
  0
ARC
  5
BE39
  8
CW
 10
2246.6166363929778527
 20
138.5786399580869954
 30
0.0
 40
25.3685412296425987
 50
105.7478714642059003
 51
114.1920330523067975
  0
ARC
  5
BE3A
  8
CW
 10
2239.5477867559598053
 20
162.0548042090763943
 30
0.0
 40
0.9579568844440977
 50
339.1859010154215071
 51
78.9438378066828221
  0
ARC
  5
BE3B
  8
CW
 10
2233.0427237101080209
 20
169.4449271595638038
 30
0.0
 40
10.7017931458193694
 50
290.1099116049335862
 51
313.7505360211952166
  0
ARC
  5
BE3C
  8
CW
 10
2240.8502703122589992
 20
125.9727698046670952
 30
0.0
 40
33.6767620764629214
 50
97.040914896285102
 51
102.1563970136604951
  0
ARC
  5
BE3D
  8
CW
 10
2231.2806866961691412
 20
162.7004799131233028
 30
0.0
 40
4.5416293515447403
 50
273.076691757441381
 51
303.0654877334226853
  0
ARC
  5
BE3E
  8
CW
 10
2231.3318058328050029
 20
157.6392598742463917
 30
0.0
 40
0.5602955478319691
 50
69.8900998681481553
 51
217.3028001903745974
  0
ARC
  5
BE3F
  8
CW
 10
2230.1411956028091481
 20
156.7321659763647119
 30
0.0
 40
0.9364916980204572
 50
268.1524949565912834
 51
37.3028001902297603
  0
ARC
  5
BE40
  8
CW
 10
2229.9241381034598817
 20
150.0030000001929977
 30
0.0
 40
5.7961740959193557
 50
88.152494956675028
 51
140.3656724281674997
  0
ARC
  5
BE41
  8
CW
 10
2945.4023317372839301
 20
-442.6144280043051253
 30
0.0
 40
934.830329302382097
 50
140.365672428167187
 51
141.6626101611333013
  0
ARC
  5
BE42
  8
CW
 10
2315.9934355135169426
 20
55.1300274643721906
 30
0.0
 40
132.3933525899240067
 50
141.6626101611338129
 51
144.4928448741385125
  0
ARC
  5
BE43
  8
CW
 10
2180.6433860884048954
 20
151.6997841275488099
 30
0.0
 40
33.8755674804409566
 50
310.1492513011612004
 51
324.4928448741306966
  0
ARC
  5
BE44
  8
CW
 10
2212.5956460680818054
 20
113.8213881058415069
 30
0.0
 40
15.6796522545793398
 50
130.1492513011816925
 51
146.2887245182440097
  0
ARC
  5
BE45
  8
CW
 10
2200.9055207873898325
 20
121.6210567353229948
 30
0.0
 40
1.626401391949315
 50
146.2887245182666902
 51
308.4051228938556051
  0
ARC
  5
BE46
  8
CW
 10
2127.5747046832739215
 20
214.1245288277378904
 30
0.0
 40
119.6700413716097984
 50
308.4051228938325266
 51
315.6525440900005037
  0
ARC
  5
BE47
  8
CW
 10
2185.4299241768430875
 20
157.5723563675016976
 30
0.0
 40
38.7665517520559888
 50
315.6525440900114745
 51
330.7334294359433216
  0
ARC
  5
BE48
  8
CW
 10
2216.8253980161421168
 20
139.9781166329215978
 30
0.0
 40
2.7772054196760352
 50
330.7334294359419005
 51
29.2665705640581884
  0
ARC
  5
BE49
  8
CW
 10
2220.4005640112700348
 20
141.9816642758480896
 30
0.0
 40
1.3210887437772529
 50
72.8390209468831955
 51
209.2665705641597924
  0
ARC
  5
BE4A
  8
CW
 10
2221.0482104696579881
 20
144.0789271976179862
 30
0.0
 40
0.873895925438706
 50
252.8390209468053911
 51
28.1744190574685192
  0
ARC
  5
BE4B
  8
CW
 10
2223.4709871929048859
 20
143.6542401779815066
 30
0.0
 40
1.8524537718698471
 50
26.8718734738273284
 51
153.1281265263108935
  0
ARC
  5
BE4C
  8
CW
 10
2226.410406786168096
 20
147.7648352047710887
 30
0.0
 40
3.5172139455031779
 50
248.5362126549075015
 51
316.5175074587518793
  0
ARC
  5
BE4D
  8
CW
 10
2230.1732248856878869
 20
143.6957192998337121
 30
0.0
 40
2.045617481955603
 50
351.426882393650601
 51
126.291279447171803
  0
ARC
  5
BE4E
  8
CW
 10
2222.0131435354837777
 20
150.6490800044095124
 30
0.0
 40
12.5049288268332699
 50
306.4851853347294082
 51
324.5188253749038836
  0
ARC
  5
BE4F
  8
CW
 10
2116.5122773618450083
 20
272.7190121699975975
 30
0.0
 40
173.8142918072070984
 50
304.5694612657371181
 51
310.5230362984011094
  0
ARC
  5
BE50
  8
CW
 10
2218.2961600513949634
 20
128.5503283574157081
 30
0.0
 40
3.3285082457207391
 50
161.734339591007199
 51
250.6214588100251888
  0
ARC
  5
BE51
  8
CW
 10
2177.3756994390278123
 20
193.9967536954779916
 30
0.0
 40
79.3057750116414724
 50
300.1361969385159796
 51
317.0306927974552877
  0
ARC
  5
BE52
  8
CW
 10
2232.7488850516429011
 20
142.5797656670615936
 30
0.0
 40
3.7439357690740991
 50
315.1948852021174048
 51
10.2183171937312203
  0
ARC
  5
BE53
  8
CW
 10
2238.722282318093221
 20
144.3145512996331945
 30
0.0
 40
2.5268600950935349
 50
136.2643900638699961
 51
205.0679835202402899
  0
ARC
  5
BE54
  8
CW
 10
2234.3559621803851769
 20
148.5384800824830904
 30
0.0
 40
3.5482628701649221
 50
315.7255009280103764
 51
16.6540811348593714
  0
ARC
  5
BE55
  8
CW
 10
2240.2507749463438813
 20
150.6926322376660039
 30
0.0
 40
2.7423169463744168
 50
102.3369209050209037
 51
204.5005803434991094
  0
ARC
  5
BE56
  8
CW
 10
2242.1973300788990855
 20
141.7924825221271874
 30
0.0
 40
11.8528461210754497
 50
62.9014855088670899
 51
102.3369209050827067
  0
ARC
  5
BE57
  8
CW
 10
2246.8822468694547752
 20
150.2863450810093866
 30
0.0
 40
2.1782835982405411
 50
305.114354197094201
 51
70.8571293157143174
  0
ARC
  5
BE58
  8
CW
 10
2085.8574518643717965
 20
303.8892416588053038
 30
0.0
 40
224.6741913367552002
 50
301.2961046314192117
 51
316.2430772770285898
  0
ARC
  5
BE59
  8
CW
 10
2165.7125014138209735
 20
184.2894700128499039
 30
0.0
 40
81.2253010299572793
 50
291.0747303907176047
 51
296.9833123771932151
  0
ARC
  5
BE5A
  8
CW
 10
2195.8369471251990035
 20
107.145181411786794
 30
0.0
 40
1.633629363542014
 50
124.1484988349126013
 51
235.8515011650873134
  0
ARC
  5
BE5B
  8
CW
 10
2146.8944653584890148
 20
491.3428033965153077
 30
0.0
 40
388.5291895929618136
 50
277.1003981403554803
 51
280.3449638262219992
  0
ARC
  5
BE5C
  8
CW
 10
2195.1139780798780521
 20
201.3229612471745043
 30
0.0
 40
94.6787886241436638
 50
283.1567125445238275
 51
297.7748876827042182
  0
ARC
  5
BE5D
  8
CW
 10
2236.1660981778868518
 20
124.7644996414041003
 30
0.0
 40
7.8374259134943873
 50
293.0457852097948717
 51
341.3755555011172191
  0
ARC
  5
BE5E
  8
CW
 10
2259.0630591973372248
 20
115.3488237030167056
 30
0.0
 40
16.9441734645743693
 50
117.4561196108370069
 51
155.922724191709591
  0
ARC
  5
BE5F
  8
CW
 10
2255.289173260042844
 20
116.6369789358959963
 30
0.0
 40
14.3284186294113596
 50
88.0417849834889239
 51
106.3710038212466031
  0
ARC
  5
BE60
  8
CW
 10
2254.7228117947429382
 20
135.6736515845180975
 30
0.0
 40
4.8333837146658407
 50
282.6194694654946034
 51
318.2122396177455812
  0
ARC
  5
BE61
  8
CW
 10
2258.5732725457169181
 20
131.840586904540686
 30
0.0
 40
0.6600260094885463
 50
320.9600765427040869
 51
111.9392476504824003
  0
ARC
  5
BE62
  8
CW
 10
2260.6590326755222122
 20
128.6919057988563964
 30
0.0
 40
3.153368556536611
 50
119.9251035829040006
 51
214.1889190932471934
  0
ARC
  5
BE63
  8
CW
 10
2259.8233652491949215
 20
132.576217123499589
 30
0.0
 40
5.9275633176158653
 50
252.5981568151266003
 51
291.9152079047840971
  0
ARC
  5
BE64
  8
CW
 10
2261.924386642951049
 20
125.6746461553763936
 30
0.0
 40
1.406763405272957
 50
295.8787097429773212
 51
85.460220910863967
  0
ARC
  5
BE65
  8
CW
 10
2304.1872889834489797
 20
-45.5202212261390287
 30
0.0
 40
174.9587230181871007
 50
103.771468814530806
 51
106.345977497558394
  0
ARC
  5
BE66
  8
CW
 10
2255.7305955516258109
 20
120.4526172231824006
 30
0.0
 40
2.068027102424947
 50
112.2523365889145026
 51
167.0519161726248001
  0
ARC
  5
BE67
  8
CW
 10
2251.0227322373129937
 20
121.486325868136305
 30
0.0
 40
2.7521620001062801
 50
281.1010283290087273
 51
348.0399434500109237
  0
ARC
  5
BE68
  8
CW
 10
2251.6045155956639974
 20
104.4007408070064997
 30
0.0
 40
14.3850117558206101
 50
90.2066524223095456
 51
104.8220155900259982
  0
ARC
  5
BE69
  8
CW
 10
2185.2662224397640784
 20
232.8432996296035924
 30
0.0
 40
130.5550169833367136
 50
272.3003778273429134
 51
298.6813755224902138
  0
ARC
  5
BE6A
  8
CW
 10
2190.9389860166920698
 20
100.7008134979737974
 30
0.0
 40
1.747059521974234
 50
104.3329840855022042
 51
214.2733681370835086
  0
ARC
  5
BE6B
  8
CW
 10
2240.433005068429793
 20
188.7426836368728118
 30
0.0
 40
102.5681665400070983
 50
240.2231644689466918
 51
247.6624959676651088
  0
ARC
  5
BE6C
  8
CW
 10
2202.1501183512032185
 20
97.5323111717574847
 30
0.0
 40
3.727390086298886
 50
259.1859015123278027
 51
327.0836473734664196
  0
ARC
  5
BE6D
  8
CW
 10
2212.9950686159399993
 20
97.1763723648525684
 30
0.0
 40
7.8945031342632923
 50
150.1132004385713117
 51
192.2094534901648899
  0
ARC
  5
BE6E
  8
CW
 10
2210.5735060021688696
 20
96.8151376082869604
 30
0.0
 40
6.165246258014573
 50
88.7866880221210408
 51
135.8417728531323974
  0
ARC
  5
BE6F
  8
CW
 10
2213.2248006911568154
 20
107.6473652702297983
 30
0.0
 40
5.3054488244397842
 50
241.6325595487633962
 51
298.3674404512365754
  0
ARC
  5
BE70
  8
CW
 10
2219.3844607736409671
 20
100.0482905451664948
 30
0.0
 40
4.6723390814143837
 50
102.8216596805402929
 51
141.1526925940810031
  0
ARC
  5
BE71
  8
CW
 10
2217.3805157608308036
 20
99.7117351640231533
 30
0.0
 40
4.9870563789055273
 50
12.4287956118725909
 51
78.8185591072525824
  0
ARC
  5
BE72
  8
CW
 10
2219.3696334988981107
 20
101.0017357847829942
 30
0.0
 40
2.8891979102075398
 50
288.7672284944241028
 51
355.699457593504917
  0
ARC
  5
BE73
  8
CW
 10
2222.3503415750760723
 20
96.4378809273521256
 30
0.0
 40
2.7477096004308859
 50
138.2886642913682067
 51
196.316397937361188
  0
ARC
  5
BE74
  8
CW
 10
2212.0115815457979807
 20
94.5920535083007366
 30
0.0
 40
7.7762221547504069
 50
352.801180142579824
 51
7.9378105324865977
  0
ARC
  5
BE75
  8
CW
 10
2218.3411055902929547
 20
93.8175874738199269
 30
0.0
 40
1.3997613286377339
 50
292.2557083678261733
 51
351.7856221262854888
  0
ARC
  5
BE76
  8
CW
 10
2222.2350132938349816
 20
39.5554516305159183
 30
0.0
 40
53.0733567975850775
 50
93.633811416687962
 51
104.0820287806738946
  0
ARC
  5
BE77
  8
CW
 10
2208.8481671305021337
 20
121.7558518890731989
 30
0.0
 40
30.7256329266176103
 50
242.7220673008336007
 51
270.8830443086976061
  0
ARC
  5
BE78
  8
CW
 10
2204.6752885322771363
 20
122.2538228438252048
 30
0.0
 40
29.5194887402160511
 50
231.7279309948877142
 51
250.3865175171330009
  0
ARC
  5
BE79
  8
CW
 10
2184.2361898156150346
 20
97.594081633354179
 30
0.0
 40
2.6167593278148522
 50
34.5658907598834517
 51
145.4341092401164985
  0
ARC
  5
BE7A
  8
CW
 10
1817.5134115376490627
 20
202.4385987416299031
 30
0.0
 40
378.9367397264621218
 50
329.3177924943411767
 51
344.1712573162781723
  0
ARC
  5
BE7B
  8
CW
 10
2165.0472269200031405
 20
-2.648711436510538
 30
0.0
 40
24.6159514344514108
 50
151.5547678381265939
 51
174.8798890370919139
  0
ARC
  5
BE7C
  8
CW
 10
2989.6547709592177853
 20
-115.1691717999567004
 30
0.0
 40
856.8394157651072192
 50
172.3058948229920873
 51
177.0656557455262998
  0
ARC
  5
BE7D
  8
CW
 10
2131.7092993341498186
 20
-70.989589981047132
 30
0.0
 40
2.2518690469748681
 50
288.4541429862911173
 51
351.9173705952616729
  0
ARC
  5
BE7E
  8
CW
 10
2130.8098890552050761
 20
-66.3007219245278208
 30
0.0
 40
7.0127803926555901
 50
252.5502906168727009
 51
283.2911106245389874
  0
ARC
  5
BE7F
  8
CW
 10
2129.6379423342627888
 20
-70.9326836047548284
 30
0.0
 40
2.2588601185274291
 50
194.5823521402460869
 51
245.6606875372501122
  0
ARC
  5
BE80
  8
CW
 10
3785.9839903213978687
 20
242.0336550629019996
 30
0.0
 40
1687.9079061516840738
 50
189.3184438365358915
 51
190.7050750094882119
  0
ARC
  5
BE81
  8
CW
 10
7845.8265128497787373
 20
1063.7933042929730618
 30
0.0
 40
5829.2582753913620763
 50
190.4646327741340883
 51
190.8277598779957884
  0
ARC
  5
BE82
  8
CW
 10
1421.4544868818220493
 20
-119.596132895402306
 30
0.0
 40
703.2028517760618342
 50
10.2085436643389293
 51
13.5126664399665
  0
ARC
  5
BE83
  8
CW
 10
2077.4347553036441241
 20
38.4735720147499691
 30
0.0
 40
28.4496854730621109
 50
12.6718091645212692
 51
28.2189683508613598
  0
ENDSEC
  0
EOF
